<?xml version="1.0" encoding="UTF-8"?>
<svg width="236px" height="320px" viewBox="0 0 236 320" version="1.1" xmlns="http://www.w3.org/2000/svg" xmlns:xlink="http://www.w3.org/1999/xlink">
    <title>Shape</title>
    <g id="Page-1" stroke="none" stroke-width="1" fill="none" fill-rule="evenodd">
        <g id="netopia-retail-logo" transform="translate(-1382.000000, -1035.000000)" fill="#192652">
            <path d="M1439.43628,1035 C1441.10366,1035 1442.72938,1035.52099 1444.08619,1036.49013 L1558,1115 L1558,1035 L1618,1035 L1618,1355 L1558,1355 L1558,1199.11694 C1558,1196.53333 1556.75227,1194.10877 1554.64991,1192.60708 L1442,1115 L1442.00483,1208.31551 C1422.40476,1199.7511 1404.75722,1195 1382,1195 L1382,1035 L1439.43628,1035 Z M1382,1211 C1460.73371,1211 1524.70907,1274.18802 1525.98071,1352.6187 L1526,1355 L1497.2,1355 C1497.2,1292.01303 1446.64958,1240.83274 1383.90504,1239.81543 L1382,1239.8 L1382,1211 Z M1382,1254.2 C1437.1136,1254.2 1481.89635,1298.43162 1482.7865,1353.33309 L1482.8,1355 L1454,1355 C1454,1315.67733 1422.47687,1283.71727 1383.32266,1283.01191 L1382,1283 L1382,1254.2 Z M1382,1297.4 C1413.39303,1297.4 1438.92032,1322.51422 1439.58665,1353.74745 L1439.6,1355 L1410.8,1355 C1410.8,1339.41881 1398.42672,1326.72755 1382.96998,1326.21603 L1382,1326.2 L1382,1297.4 Z" id="Shape"></path>
        </g>
    </g>
</svg>