<svg width="1000" height="612" viewBox="0 0 1000 612" fill="none" xmlns="http://www.w3.org/2000/svg">
<path opacity="0.1" d="M999.996 335.047L999.846 606.769C841.147 642.526 711.629 472.058 604.123 443.253C499.034 415.095 451.567 475.037 363.515 474.044C281.605 473.051 218.126 421.402 129.049 394.584C61.9449 374.382 25.6987 379.574 0.10207 382.941L0.0830078 329.112L999.996 335.047Z" fill="#2675E7"/>
<path opacity="0.1" d="M999.975 357.728L999.996 594.152C843.323 636.861 688.646 451.123 595.84 417.352C494.94 384.198 437.171 464.035 354.344 463.042C274.51 462.049 201.572 409.337 125.821 376.629C60.7464 351.212 21.9673 360.022 0.0830078 360.131L0.0830078 337.892L999.975 357.728Z" fill="#2C80EE"/>
<path opacity="0.1" d="M999.996 338.408L999.458 566.417C782.81 579.034 699.476 438.203 596.114 411.26C493.281 384.456 422.396 441.043 339.531 440.05C259.661 439.057 209.652 403.249 125.878 370.558C64.7479 346.732 18.0538 355.061 0.0830078 360.025L0.0830078 337.797L999.996 338.408Z" fill="#154BA3"/>
<path d="M999.996 0.209601L999.996 563.663C784.459 576.288 700.363 436.104 597.531 409.145C495.226 382.324 424.704 438.945 342.264 437.952C262.803 436.958 213.05 401.128 129.706 368.418C68.8886 344.577 17.9617 352.683 0.0830078 357.65L0.103674 0.0388697L999.996 0.209601Z" fill="url(#paint0_linear_218_52)"/>
<defs>
<linearGradient id="paint0_linear_218_52" x1="516.061" y1="-9.49003" x2="521.154" y2="436.127" gradientUnits="userSpaceOnUse">
<stop stop-color="#154BA3"/>
<stop offset="0.0001" stop-color="#154BA3"/>
<stop offset="1" stop-color="#2D81EF"/>
<stop offset="1" stop-color="#2D80ED"/>
</linearGradient>
</defs>
</svg>
