<svg width="936" height="276" viewBox="0 0 936 276" fill="none" xmlns="http://www.w3.org/2000/svg">
<path d="M0.817078 39.077L0.848694 275.5L934.834 275.475L934.817 51.1797C875.25 24.5401 776.013 11.0366 593.979 52.3974C395.541 97.4829 203.246 104.063 70.1385 65.0134C44.743 58.4547 21.5145 49.8773 0.817078 39.077Z" fill="url(#paint0_linear_245_35)"/>
<g opacity="0.4">
<path d="M593.576 83.5175C775.61 8.34105 874.848 32.8677 934.414 81.3039L935.237 54.7029C875.671 6.2668 787.618 -20.4905 605.584 54.703C369.301 152.306 129.714 169.723 0.414124 46.9824V56.7093C129.714 179.478 357.293 181.137 593.576 83.5175Z" fill="#2C80EE"/>
</g>
<path opacity="0.4" d="M0.825745 21.4866V30.3184C130.126 141.511 357.704 143.014 593.987 54.5829C776.021 -13.5329 875.259 8.70567 934.826 52.5776V41.4172C875.259 -2.45469 776.021 -24.6932 593.987 43.4226C395.55 117.672 204.311 131.38 71.2038 67.0695C45.8083 56.2682 21.5232 39.2733 0.825745 21.4866Z" fill="white"/>
<defs>
<linearGradient id="paint0_linear_245_35" x1="552.426" y1="274.65" x2="554.074" y2="60.3735" gradientUnits="userSpaceOnUse">
<stop stop-color="#14499E"/>
<stop offset="0.557292" stop-color="#1B59BC"/>
<stop offset="1" stop-color="#2C80EE"/>
</linearGradient>
</defs>
</svg>
