<svg width="936" height="276" viewBox="0 0 936 276" fill="none" xmlns="http://www.w3.org/2000/svg">
<path d="M935.144 236.681L935.112 0.257599L1.12646 0.282761L1.14401 224.578C60.7108 251.218 159.948 264.721 341.982 223.36C540.42 178.275 732.715 171.694 865.822 210.744C891.218 217.303 914.446 225.88 935.144 236.681Z" fill="url(#paint0_linear_244_308)"/>
<g opacity="0.4">
<path d="M342.385 192.24C160.351 267.417 61.1134 242.89 1.54658 194.454L0.723633 221.055C60.2904 269.491 148.343 296.248 330.377 221.055C566.66 123.452 806.247 106.034 935.547 228.775V219.048C806.247 96.2792 578.668 94.6204 342.385 192.24Z" fill="#2C80EE"/>
</g>
<path opacity="0.4" d="M935.135 254.271V245.439C805.835 134.247 578.257 132.744 341.974 221.175C159.94 289.291 60.702 267.052 1.13525 223.18V234.341C60.702 278.212 159.94 300.451 341.974 232.335C540.411 158.085 731.65 144.378 864.757 208.688C890.153 219.49 914.438 236.484 935.135 254.271Z" fill="white"/>
<defs>
<linearGradient id="paint0_linear_244_308" x1="383.535" y1="1.1079" x2="381.887" y2="215.384" gradientUnits="userSpaceOnUse">
<stop stop-color="#14499E"/>
<stop offset="0.557292" stop-color="#1B59BC"/>
<stop offset="1" stop-color="#2C80EE"/>
</linearGradient>
</defs>
</svg>
