<svg width="475" height="474" viewBox="0 0 475 474" fill="none" xmlns="http://www.w3.org/2000/svg">
<path d="M474.127 237.226C474.127 367.841 368.243 473.726 237.627 473.726C107.012 473.726 1.12744 367.841 1.12744 237.226C1.12744 106.61 107.012 0.725586 237.627 0.725586C368.243 0.725586 474.127 106.61 474.127 237.226ZM3.79169 237.226C3.79169 366.37 108.484 471.061 237.627 471.061C366.771 471.061 471.463 366.37 471.463 237.226C471.463 108.082 366.771 3.38983 237.627 3.38983C108.484 3.38983 3.79169 108.082 3.79169 237.226Z" fill="url(#paint0_linear_324_45)"/>
<path d="M262.835 240.001V292.203H271.039V244.598H303.857V292.203H312.061V187.799H303.857C301.138 187.799 296.965 201.965 296.965 216.199C296.965 226.927 298.218 236.122 299.999 240.001H262.835ZM303.857 240.001H303.777C303.804 239.943 303.83 239.881 303.857 239.821V240.001Z" fill="#3F3D56"/>
<path d="M293.238 161.961H293.238C286.504 161.961 281.044 168.022 281.044 175.499V184.999H283.965L285.656 181.479L285.233 184.999H304.004L305.541 181.799L305.157 184.999H307.27V177.54C307.27 168.936 300.988 161.961 293.238 161.961Z" fill="#2F2E41"/>
<path d="M279.266 224.026L271.78 227.209L245.763 248.369C244.806 249.545 244.22 250.979 244.078 252.488C243.891 254.923 236.03 267.656 238.837 269.341C241.645 271.026 251.752 276.082 252.314 272.712C252.875 269.341 255.87 254.923 255.87 254.923L280.951 232.452L279.266 224.026Z" fill="#2F2E41"/>
<path d="M249.88 269.903L246.698 279.266C246.698 279.266 250.068 282.823 248.383 285.819V296.118H245.763L245.014 290.688C245.014 290.688 242.029 296.05 240.522 296.118C237.362 296.262 231.104 297.387 230.916 295.701C230.729 294.016 235.655 292.373 235.655 292.373L240.896 277.955L243.142 269.154L249.88 269.903Z" fill="#2F2E41"/>
<path d="M298.732 221.592C298.732 221.592 300.417 238.07 295.55 241.066C290.684 244.062 269.159 253.612 269.159 253.612C269.159 253.612 278.331 262.226 276.459 264.285C274.587 266.345 266.164 271.963 265.041 270.839C263.918 269.716 251.378 256.234 252.875 251.927C254.373 247.62 275.149 233.576 275.149 233.576L277.582 224.775L278.331 217.66L286.192 212.604L298.732 221.592Z" fill="#2F2E41"/>
<path d="M290.157 183.226C294.466 183.226 297.96 179.731 297.96 175.42C297.96 171.109 294.466 167.614 290.157 167.614C285.848 167.614 282.354 171.109 282.354 175.42C282.354 179.731 285.848 183.226 290.157 183.226Z" fill="#FFB9B9"/>
<path d="M296.205 178.618C296.205 178.618 295.831 185.733 301.633 187.98C307.436 190.227 287.221 204.833 287.221 204.833V188.542C287.221 188.542 289.842 185.733 287.221 181.426L296.205 178.618Z" fill="#FFB9B9"/>
<path d="M308.652 212.042L307.155 219.345L302.663 244.437C302.663 244.437 306.406 255.11 301.353 254.923C296.299 254.735 298.732 243.313 298.732 243.313L301.353 222.528V214.476L308.652 212.042Z" fill="#FFB9B9"/>
<path d="M276.459 208.484L274.774 215.038L267.1 233.576C267.1 233.576 261.859 242.377 266.164 242.19C270.469 242.003 270.469 233.576 270.469 233.576L279.266 218.596V210.17L276.459 208.484Z" fill="#FFB9B9"/>
<path d="M275.149 263.162L281.325 268.967C281.325 268.967 285.63 268.03 287.315 273.086C288.999 278.142 290.122 281.325 290.122 281.325L287.876 282.636L285.069 278.704C285.069 278.704 283.384 285.819 281.7 286.381C280.015 286.943 271.592 290.688 272.341 286.381L276.459 280.389C276.459 280.389 277.02 273.648 275.336 273.086C273.651 272.524 269.159 266.907 269.159 266.907L275.149 263.162Z" fill="#2F2E41"/>
<path d="M299.029 227.397C299.029 227.397 281.435 221.03 280.312 221.592C279.476 221.961 278.585 222.193 277.675 222.276L277.691 219.719C277.691 219.719 283.494 217.66 286.676 218.97C289.858 220.281 299.59 226.086 299.59 226.086L299.029 227.397Z" fill="#3F3D56"/>
<path d="M288.344 201.088C288.344 201.088 293.398 195.283 294.895 191.725C295.843 189.568 297.581 187.858 299.753 186.946C299.753 186.946 310.992 189.478 310.805 193.972C310.618 198.466 303.692 205.395 303.692 205.395C303.692 205.395 304.628 230.299 299.574 229.925C298.484 228.623 297.715 227.084 297.328 225.431C296.767 222.809 279.36 220 279.36 220C279.36 220 277.863 222.622 277.675 221.498C277.488 220.375 279.173 192.849 279.173 192.849L288.098 186.946L288.344 201.088Z" fill="#D0CDE1"/>
<path d="M309.363 192.163L309.488 192.234C309.888 192.458 310.221 192.785 310.453 193.181C310.685 193.577 310.807 194.028 310.807 194.487L310.805 208.383C310.806 208.761 310.89 209.134 311.05 209.476C311.21 209.818 311.442 210.122 311.731 210.365C312.452 210.979 313.12 211.863 311.741 212.323C309.495 213.072 300.698 216.817 300.51 215.506C300.323 214.195 299.949 212.697 300.51 212.697C300.95 212.697 303.569 199.27 305.674 193.529C305.802 193.177 306.006 192.858 306.27 192.593C306.534 192.328 306.852 192.123 307.203 191.993C307.554 191.863 307.929 191.811 308.302 191.841C308.675 191.87 309.037 191.98 309.363 192.163V192.163Z" fill="#D0CDE1"/>
<path d="M281.7 192.193L279.079 192.942L276.084 205.863C276.084 205.863 272.528 206.612 273.651 207.923C274.774 209.233 279.454 212.604 279.454 212.604L281.7 192.193Z" fill="#D0CDE1"/>
<path d="M296.705 165.691C296.118 164.902 295.358 164.26 294.482 163.813C293.607 163.366 292.641 163.127 291.659 163.115H291.419C286.804 163.115 283.062 167.293 283.062 172.448V172.448H284.608L284.858 170.546L285.224 172.448H294.397L295.166 170.838L294.974 172.448H296.778C297.62 176.631 296.411 180.815 293.149 184.999H296.223L297.76 181.781L297.375 184.999H303.235L304.388 177.597C304.388 172.053 301.169 167.353 296.705 165.691Z" fill="#2F2E41"/>
<path d="M139.942 252.063C141.912 247.774 143.296 237.607 143.296 225.745C143.296 210.007 138.682 194.345 135.676 194.345H126.605V309.781H135.676V257.145H171.961V309.781H181.033V252.063H139.942ZM135.676 251.863C135.706 251.93 135.735 251.998 135.765 252.063H135.676V251.863Z" fill="#3F3D56"/>
<path d="M177.752 231.004C177.752 231.004 188.677 235.535 185.213 238.201C181.749 240.867 174.555 235.002 174.821 234.203C175.088 233.403 173.755 231.537 173.755 231.537L177.752 231.004Z" fill="#9F616A"/>
<path d="M168.16 195.283L171.624 198.482L172.423 207.812L175.088 217.675C175.088 217.675 179.618 227.005 178.818 228.871C178.019 230.737 179.618 231.27 179.618 231.27L173.489 233.669C173.489 233.669 166.828 226.205 166.828 224.606C166.828 223.006 168.16 195.283 168.16 195.283Z" fill="#575A88"/>
<path opacity="0.1" d="M168.16 195.283L171.624 198.482L172.423 207.812L175.088 217.675C175.088 217.675 179.618 227.005 178.818 228.871C178.019 230.737 179.618 231.27 179.618 231.27L173.489 233.669C173.489 233.669 166.828 226.205 166.828 224.606C166.828 223.006 168.16 195.283 168.16 195.283Z" fill="black"/>
<path d="M200.934 291.249C200.934 291.249 199.602 297.38 199.335 297.913C199.069 298.446 204.398 300.312 204.398 300.312L210.793 295.781C210.793 295.781 208.129 289.916 208.129 288.85L200.934 291.249Z" fill="#575A88"/>
<path d="M166.028 231.537L167.893 233.669C167.893 233.669 206.53 238.468 207.329 245.932C208.129 253.396 213.724 288.583 210.527 289.649C207.329 290.716 199.069 294.714 199.069 292.582C199.069 290.449 193.74 261.126 194.806 255.795C194.806 255.795 148.708 249.93 147.643 243.266C146.577 236.601 148.708 233.669 148.708 233.669L166.028 231.537Z" fill="#2F2E41"/>
<path opacity="0.1" d="M166.028 231.537L167.893 233.669C167.893 233.669 206.53 238.468 207.329 245.932C208.129 253.396 213.724 288.583 210.527 289.649C207.329 290.716 199.069 294.714 199.069 292.582C199.069 290.449 193.74 261.126 194.806 255.795C194.806 255.795 148.708 249.93 147.643 243.266C146.577 236.601 148.708 233.669 148.708 233.669L166.028 231.537Z" fill="black"/>
<path d="M200.401 297.38C200.401 297.38 199.335 294.981 198.802 295.781C198.27 296.58 196.404 305.91 198.27 305.91C200.135 305.91 217.188 310.176 219.586 309.642C221.984 309.109 226.514 309.909 225.981 307.243C225.448 304.578 222.784 304.311 222.784 304.311C222.784 304.311 212.925 298.446 212.392 295.514C211.859 292.582 208.928 294.181 208.928 294.181V296.047C208.928 296.047 203.332 300.312 200.401 297.38Z" fill="#2F2E41"/>
<path d="M149.774 175.023C149.774 175.023 151.639 184.087 147.643 184.886C143.646 185.686 152.705 191.018 152.705 191.018L158.567 194.217L162.831 189.951C162.831 189.951 158.967 182.087 161.898 176.223C164.829 170.358 149.774 175.023 149.774 175.023Z" fill="#9F616A"/>
<path d="M162.831 189.951L158.567 194.217L152.705 191.018C152.705 191.018 143.646 185.686 147.643 184.886C150.214 184.372 150.358 180.437 150.137 177.697C150.064 176.8 149.943 175.907 149.774 175.023C149.774 175.023 164.829 170.358 161.898 176.223C161.453 177.128 161.144 178.095 160.981 179.091C160.083 184.361 162.831 189.951 162.831 189.951Z" fill="#9F616A"/>
<path d="M177.752 298.979V305.111H187.878L188.677 302.711L187.611 296.314L177.752 298.979Z" fill="#575A88"/>
<path d="M135.918 236.868C135.918 236.868 135.918 252.596 142.313 253.129C148.708 253.662 171.624 256.594 171.624 256.594C171.624 256.594 172.956 282.719 175.354 291.249C177.752 299.779 175.621 300.312 177.752 300.845C179.884 301.379 188.944 299.513 188.677 297.647C188.411 295.781 187.345 248.597 187.345 248.597C187.345 248.597 189.743 238.467 157.768 233.669L135.918 236.868Z" fill="#2F2E41"/>
<path d="M178.552 303.245C178.552 303.245 176.953 299.779 176.687 300.846C176.42 301.912 173.223 311.242 176.42 312.042C179.618 312.841 189.743 317.107 196.404 316.84C203.066 316.573 203.865 316.307 203.865 316.307C203.865 316.307 205.73 313.641 203.332 312.042C200.934 310.442 191.075 301.112 190.542 300.046C190.009 298.98 186.013 298.18 186.013 300.046C186.013 301.912 180.417 305.644 178.552 303.245Z" fill="#2F2E41"/>
<path opacity="0.1" d="M161.898 176.223C161.453 177.128 161.144 178.095 160.981 179.091C159.654 179.894 158.767 179.688 157.102 179.688C154.632 179.688 153.635 176.529 152.039 174.89C151.914 173.368 149.774 175.023 149.774 175.023C149.774 175.023 164.829 170.358 161.898 176.223Z" fill="black"/>
<path d="M156.436 179.555C161.292 179.555 165.229 175.616 165.229 170.758C165.229 165.9 161.292 161.961 156.436 161.961C151.579 161.961 147.643 165.9 147.643 170.758C147.643 175.616 151.579 179.555 156.436 179.555Z" fill="#9F616A"/>
<path d="M171.624 198.482C171.624 198.482 170.291 208.078 169.492 211.544C168.693 215.009 167.627 231.004 167.094 233.136C166.561 235.269 163.364 235.802 156.969 235.002C156.567 234.952 156.163 234.921 155.759 234.912C151.821 234.786 147.315 236.26 143.145 237.417C140.747 238.084 138.458 238.644 136.451 238.734C133.414 238.873 132.524 235.503 132.628 231.857C132.726 228.463 133.688 224.824 134.586 223.54C136.204 221.226 134.613 200.452 135.21 193.601V193.598C135.3 192.553 135.441 191.833 135.652 191.551C137.251 189.418 147.643 184.087 148.807 184.303C149.969 184.519 159.9 190.751 159.9 190.751C162.298 190.751 162.22 188.149 162.22 188.149C162.22 188.149 163.896 191.284 167.094 192.084C170.291 192.884 171.624 198.482 171.624 198.482Z" fill="#575A88"/>
<path d="M153.812 233.041C153.812 233.041 170.976 233.588 167.969 235.628C164.962 237.668 151.639 239.534 151.373 236.868C151.107 234.202 153.812 233.041 153.812 233.041Z" fill="#9F616A"/>
<path opacity="0.1" d="M155.759 234.911C155.815 235.935 153.062 238.241 152.172 239.8C151.679 240.664 147.864 239.526 143.145 237.417C139.524 235.791 136.011 233.934 132.628 231.856C132.726 228.463 133.688 224.824 134.586 223.539C136.204 221.226 134.613 200.452 135.21 193.601V193.598C135.352 193.526 135.5 193.465 135.652 193.417H138.849C149.774 198.482 137.251 220.341 137.251 220.341C137.251 220.341 153.771 233.936 155.37 234.469C155.475 234.489 155.57 234.543 155.64 234.623C155.711 234.703 155.753 234.805 155.759 234.911V234.911Z" fill="black"/>
<path d="M138.849 191.817H135.652C135.652 191.817 132.721 192.617 130.323 197.949C127.925 203.28 119.132 219.807 126.859 226.205C134.586 232.603 151.107 240.067 152.172 238.201C153.238 236.335 156.969 233.403 155.37 232.87C153.771 232.336 137.251 218.741 137.251 218.741C137.251 218.741 149.774 196.882 138.849 191.817Z" fill="#575A88"/>
<path d="M155.083 166.665C155.083 166.665 155.469 161.321 160.229 163.5C164.99 165.679 164.679 159.673 163.241 158.611C161.802 157.55 161.847 157.287 156.586 157.997C151.325 158.707 141.11 159.911 144.413 170.494C147.716 181.078 150.707 178.355 150.707 178.355C150.707 178.355 148.081 168.831 150.742 170.646L153.402 172.46L154.806 172.163L155.083 166.665Z" fill="#2F2E41"/>
<path d="M351.51 243.617C351.51 238.806 315.77 234.905 271.683 234.905C227.595 234.905 191.856 238.806 191.856 243.617C191.856 245.482 197.227 247.21 206.37 248.627V308.232H210.724V249.241C225.367 251.13 247.24 252.329 271.683 252.329C296.328 252.329 318.361 251.11 333.005 249.195V308.232H337.359V248.57C346.279 247.163 351.51 245.457 351.51 243.617Z" fill="#3F3D56"/>
<path d="M281.684 243.799C290.66 243.799 297.937 242.009 297.937 239.8C297.937 237.592 290.66 235.802 281.684 235.802C272.707 235.802 265.43 237.592 265.43 239.8C265.43 242.009 272.707 243.799 281.684 243.799Z" fill="#F2F2F2"/>
<path d="M281.684 243.078C289.042 243.078 295.006 241.611 295.006 239.8C295.006 237.99 289.042 236.523 281.684 236.523C274.326 236.523 268.361 237.99 268.361 239.8C268.361 241.611 274.326 243.078 281.684 243.078Z" fill="#D0CDE1"/>
<path d="M221.198 246.998C230.174 246.998 237.452 245.208 237.452 242.999C237.452 240.791 230.174 239.001 221.198 239.001C212.221 239.001 204.944 240.791 204.944 242.999C204.944 245.208 212.221 246.998 221.198 246.998Z" fill="#F2F2F2"/>
<path d="M221.198 246.277C228.556 246.277 234.521 244.809 234.521 242.999C234.521 241.189 228.556 239.722 221.198 239.722C213.84 239.722 207.875 241.189 207.875 242.999C207.875 244.809 213.84 246.277 221.198 246.277Z" fill="#D0CDE1"/>
<path d="M281.305 239.518C285.585 239.518 289.054 238.97 289.054 238.294C289.054 237.618 285.585 237.07 281.305 237.07C277.026 237.07 273.557 237.618 273.557 238.294C273.557 238.97 277.026 239.518 281.305 239.518Z" fill="#9F616A"/>
<path d="M277.176 237.835C278.527 237.835 279.623 237.241 279.623 236.509C279.623 235.777 278.527 235.183 277.176 235.183C275.825 235.183 274.729 235.777 274.729 236.509C274.729 237.241 275.825 237.835 277.176 237.835Z" fill="#FF4000"/>
<path d="M276.258 237.835C277.61 237.835 278.705 237.241 278.705 236.509C278.705 235.777 277.61 235.183 276.258 235.183C274.907 235.183 273.811 235.777 273.811 236.509C273.811 237.241 274.907 237.835 276.258 237.835Z" fill="#FF4000"/>
<path d="M286.964 238.141C288.315 238.141 289.411 237.547 289.411 236.815C289.411 236.083 288.315 235.489 286.964 235.489C285.612 235.489 284.517 236.083 284.517 236.815C284.517 237.547 285.612 238.141 286.964 238.141Z" fill="#FF4000"/>
<path d="M281.356 237.835C282.708 237.835 283.803 237.241 283.803 236.509C283.803 235.777 282.708 235.183 281.356 235.183C280.005 235.183 278.909 235.777 278.909 236.509C278.909 237.241 280.005 237.835 281.356 237.835Z" fill="#FF4000"/>
<path d="M285.536 237.835C286.888 237.835 287.983 237.241 287.983 236.509C287.983 235.777 286.888 235.183 285.536 235.183C284.185 235.183 283.09 235.777 283.09 236.509C283.09 237.241 284.185 237.835 285.536 237.835Z" fill="#FF4000"/>
<path d="M288.697 235.693C284.275 237.194 279.313 237.194 273.811 235.693V235.486C273.811 233.926 274.409 232.424 275.484 231.293C276.559 230.161 278.027 229.486 279.585 229.407C280.897 229.341 282.211 229.343 283.522 229.412C284.924 229.494 286.242 230.11 287.204 231.133C288.166 232.156 288.701 233.509 288.697 234.914V235.693Z" fill="#3F3D56"/>
<path d="M286.526 241.314C283.258 241.644 279.965 241.644 276.696 241.314C275.921 241.238 275.202 240.876 274.678 240.299C274.154 239.723 273.864 238.971 273.862 238.192H289.36C289.359 238.971 289.068 239.723 288.544 240.299C288.021 240.876 287.301 241.238 286.526 241.314V241.314Z" fill="#3F3D56"/>
<path d="M279.215 231.307C278.86 231.455 278.479 231.532 278.094 231.532C277.709 231.532 277.328 231.455 276.972 231.307C277.328 231.159 277.709 231.083 278.094 231.083C278.479 231.083 278.86 231.159 279.215 231.307V231.307Z" fill="#D0CDE1"/>
<path d="M281.458 232.225C281.103 232.373 280.722 232.45 280.337 232.45C279.952 232.45 279.571 232.373 279.215 232.225C279.571 232.077 279.952 232.001 280.337 232.001C280.722 232.001 281.103 232.077 281.458 232.225V232.225Z" fill="#D0CDE1"/>
<path d="M281.662 230.593C281.307 230.741 280.926 230.817 280.541 230.817C280.156 230.817 279.774 230.741 279.419 230.593C279.774 230.445 280.156 230.369 280.541 230.369C280.926 230.369 281.307 230.445 281.662 230.593V230.593Z" fill="#D0CDE1"/>
<path d="M285.842 230.593C285.487 230.741 285.106 230.817 284.721 230.817C284.336 230.817 283.955 230.741 283.599 230.593C283.955 230.445 284.336 230.369 284.721 230.369C285.106 230.369 285.487 230.445 285.842 230.593V230.593Z" fill="#D0CDE1"/>
<path d="M284.721 231.511C284.365 231.659 283.984 231.735 283.599 231.735C283.214 231.735 282.833 231.659 282.478 231.511C282.833 231.363 283.214 231.287 283.599 231.287C283.984 231.287 284.365 231.363 284.721 231.511V231.511Z" fill="#D0CDE1"/>
<path d="M221.086 242.717C225.365 242.717 228.835 242.169 228.835 241.493C228.835 240.817 225.365 240.269 221.086 240.269C216.806 240.269 213.337 240.817 213.337 241.493C213.337 242.169 216.806 242.717 221.086 242.717Z" fill="#9F616A"/>
<path d="M216.957 241.034C218.308 241.034 219.404 240.44 219.404 239.708C219.404 238.976 218.308 238.382 216.957 238.382C215.605 238.382 214.51 238.976 214.51 239.708C214.51 240.44 215.605 241.034 216.957 241.034Z" fill="#FF4000"/>
<path d="M216.039 241.034C217.39 241.034 218.486 240.44 218.486 239.708C218.486 238.976 217.39 238.382 216.039 238.382C214.688 238.382 213.592 238.976 213.592 239.708C213.592 240.44 214.688 241.034 216.039 241.034Z" fill="#FF4000"/>
<path d="M226.744 241.34C228.096 241.34 229.191 240.746 229.191 240.014C229.191 239.282 228.096 238.688 226.744 238.688C225.393 238.688 224.297 239.282 224.297 240.014C224.297 240.746 225.393 241.34 226.744 241.34Z" fill="#FF4000"/>
<path d="M221.137 241.034C222.488 241.034 223.584 240.44 223.584 239.708C223.584 238.976 222.488 238.382 221.137 238.382C219.785 238.382 218.69 238.976 218.69 239.708C218.69 240.44 219.785 241.034 221.137 241.034Z" fill="#FF4000"/>
<path d="M225.317 241.034C226.668 241.034 227.764 240.44 227.764 239.708C227.764 238.976 226.668 238.382 225.317 238.382C223.966 238.382 222.87 238.976 222.87 239.708C222.87 240.44 223.966 241.034 225.317 241.034Z" fill="#FF4000"/>
<path d="M228.478 238.892C224.055 240.393 219.093 240.393 213.592 238.892V238.685C213.591 237.125 214.19 235.623 215.265 234.492C216.339 233.36 217.808 232.685 219.366 232.606C220.678 232.54 221.991 232.542 223.303 232.611C224.705 232.693 226.022 233.309 226.984 234.332C227.947 235.355 228.481 236.708 228.478 238.113V238.892Z" fill="#3F3D56"/>
<path d="M226.307 244.513C223.038 244.843 219.745 244.843 216.477 244.513C215.702 244.437 214.982 244.075 214.459 243.498C213.935 242.921 213.644 242.17 213.643 241.391H229.14C229.139 242.17 228.848 242.921 228.325 243.498C227.801 244.075 227.082 244.437 226.307 244.513V244.513Z" fill="#3F3D56"/>
<path d="M218.996 234.506C218.64 234.654 218.259 234.73 217.874 234.73C217.489 234.73 217.108 234.654 216.753 234.506C217.108 234.358 217.489 234.281 217.874 234.281C218.259 234.281 218.64 234.358 218.996 234.506Z" fill="#D0CDE1"/>
<path d="M221.239 235.424C220.883 235.572 220.502 235.648 220.117 235.648C219.732 235.648 219.351 235.572 218.996 235.424C219.351 235.276 219.732 235.199 220.117 235.199C220.502 235.199 220.883 235.276 221.239 235.424Z" fill="#D0CDE1"/>
<path d="M221.443 233.792C221.087 233.94 220.706 234.016 220.321 234.016C219.936 234.016 219.555 233.94 219.2 233.792C219.555 233.644 219.936 233.568 220.321 233.568C220.706 233.568 221.087 233.644 221.443 233.792V233.792Z" fill="#D0CDE1"/>
<path d="M225.623 233.792C225.268 233.94 224.886 234.016 224.501 234.016C224.116 234.016 223.735 233.94 223.38 233.792C223.735 233.644 224.116 233.568 224.501 233.568C224.886 233.568 225.268 233.644 225.623 233.792Z" fill="#D0CDE1"/>
<path d="M224.501 234.71C224.146 234.858 223.765 234.934 223.38 234.934C222.995 234.934 222.614 234.858 222.258 234.71C222.614 234.562 222.995 234.486 223.38 234.486C223.765 234.486 224.146 234.562 224.501 234.71V234.71Z" fill="#D0CDE1"/>
<path d="M295.666 238.717L295.704 239.543L295.752 240.614C295.752 240.614 290.835 240.892 289.845 241.939C289.822 241.961 289.801 241.986 289.781 242.011L287.812 241.58L287.807 240.61C287.807 240.61 287.834 240.594 287.887 240.566C287.899 240.56 287.914 240.552 287.929 240.544C290.339 239.363 292.983 238.739 295.666 238.717Z" fill="#FF4000"/>
<path opacity="0.1" d="M295.666 238.717L295.704 239.543C293.524 239.61 289.398 240.91 289.398 240.91L287.887 240.566C290.307 239.37 292.967 238.738 295.666 238.717V238.717Z" fill="black"/>
<path opacity="0.1" d="M287.929 240.544L289.398 240.91L289.845 241.939C289.822 241.961 289.801 241.986 289.781 242.011L287.812 241.58L287.807 240.61C287.807 240.61 287.834 240.594 287.887 240.566C287.899 240.56 287.914 240.552 287.929 240.544Z" fill="white"/>
<path d="M236.246 242.182L236.284 243.008L236.332 244.079C236.332 244.079 231.415 244.357 230.425 245.404C230.402 245.427 230.38 245.451 230.361 245.477L228.392 245.045L228.387 244.075C228.387 244.075 228.414 244.06 228.467 244.031C228.479 244.025 228.494 244.017 228.509 244.009C230.919 242.828 233.563 242.204 236.246 242.182Z" fill="#FF4000"/>
<path opacity="0.1" d="M236.246 242.182L236.284 243.008C234.104 243.076 229.978 244.376 229.978 244.376L228.467 244.031C230.887 242.835 233.547 242.203 236.246 242.182Z" fill="black"/>
<path opacity="0.1" d="M228.509 244.009L229.978 244.376L230.425 245.404C230.402 245.427 230.38 245.451 230.361 245.477L228.392 245.046L228.387 244.075C228.387 244.075 228.414 244.06 228.467 244.031C228.479 244.025 228.494 244.017 228.509 244.009Z" fill="white"/>
<path d="M325.278 213.984C324.858 213.565 324.366 213.225 323.826 212.981V202.623C323.826 202.502 323.778 202.385 323.692 202.299C323.606 202.213 323.49 202.165 323.368 202.165H320.805C320.684 202.165 320.567 202.213 320.481 202.299C320.396 202.385 320.347 202.502 320.347 202.623V212.782C319.421 213.09 318.615 213.681 318.043 214.473C317.472 215.265 317.164 216.216 317.164 217.193V239.412C317.164 239.68 317.216 239.944 317.319 240.191C317.421 240.439 317.571 240.663 317.76 240.852C317.949 241.041 318.173 241.191 318.42 241.293C318.667 241.396 318.932 241.448 319.199 241.448H324.689C325.226 241.448 325.742 241.235 326.122 240.855C326.502 240.475 326.715 239.959 326.715 239.422V217.455C326.716 216.81 326.589 216.172 326.342 215.576C326.096 214.98 325.734 214.439 325.278 213.984Z" fill="#3F3D56"/>
<path d="M326.715 220.45H317.164V233.073H326.715V220.45Z" fill="#FF4000"/>
<path d="M324.032 202.873H323.826V202.623C323.826 202.502 323.778 202.385 323.692 202.299C323.606 202.213 323.49 202.165 323.368 202.165H320.805C320.684 202.165 320.567 202.213 320.481 202.299C320.396 202.385 320.347 202.502 320.347 202.623V202.873H320.141V203.935H320.347V209.361H323.826V203.935H324.032V202.873Z" fill="#FF4000"/>
<path d="M248.801 222.975C248.548 222.435 248.349 222.053 248.279 221.922C243.992 222.98 241.131 222.086 240.68 221.928C240.46 222.344 239.082 225.008 238.526 227.563C238.023 229.866 238.315 231.411 239.393 232.153L239.425 232.176L239.432 232.181C240.623 232.965 241.758 233.66 242.807 234.246C242.948 234.325 243.082 234.398 243.207 234.465L243.22 234.473L243.23 234.485C243.374 234.666 243.508 234.855 243.631 235.051C243.863 235.376 244.004 235.756 244.038 236.153V247.596L243.966 247.597C241.231 247.653 239.539 248.117 239.539 248.514C239.539 248.951 241.568 249.437 244.481 249.437C247.394 249.437 249.423 248.951 249.423 248.514C249.423 248.123 247.759 247.661 245.071 247.599L244.998 247.597L245.066 237.013C245.068 236.297 245.234 235.59 245.553 234.948C245.607 234.84 245.665 234.735 245.726 234.636C245.775 234.557 245.827 234.479 245.88 234.406L245.889 234.392L245.904 234.384C246.039 234.311 246.182 234.231 246.333 234.145L246.351 234.136C247.344 233.575 248.413 232.917 249.53 232.18C250.528 231.522 250.875 230.193 250.563 228.229C250.265 226.356 249.44 224.338 248.801 222.975Z" fill="#D0CDE1"/>
<path d="M249.057 231.941C247.886 232.713 246.919 233.292 246.18 233.709H246.179C245.1 233.636 244.017 233.666 242.944 233.8C242.186 233.377 241.163 232.77 239.905 231.941C239.893 231.933 239.881 231.925 239.869 231.916V231.915C238.715 231.121 238.686 229.439 239.062 227.719C240.017 227.613 241.54 227.66 243.586 228.391C246.008 229.257 248.545 228.767 250.014 228.322C250.256 229.839 250.109 231.247 249.057 231.941Z" fill="#FF4000"/>
<path d="M242.093 227.097C242.277 227.097 242.425 226.948 242.425 226.765C242.425 226.582 242.277 226.433 242.093 226.433C241.91 226.433 241.762 226.582 241.762 226.765C241.762 226.948 241.91 227.097 242.093 227.097Z" fill="#FF4000"/>
<path d="M241.165 230.149C241.348 230.149 241.496 230.001 241.496 229.817C241.496 229.634 241.348 229.486 241.165 229.486C240.982 229.486 240.833 229.634 240.833 229.817C240.833 230.001 240.982 230.149 241.165 230.149Z" fill="white"/>
<path d="M242.889 227.76C242.999 227.76 243.088 227.671 243.088 227.561C243.088 227.451 242.999 227.362 242.889 227.362C242.779 227.362 242.69 227.451 242.69 227.561C242.69 227.671 242.779 227.76 242.889 227.76Z" fill="#FF4000"/>
<path d="M243.685 231.542C243.795 231.542 243.884 231.453 243.884 231.343C243.884 231.233 243.795 231.144 243.685 231.144C243.575 231.144 243.486 231.233 243.486 231.343C243.486 231.453 243.575 231.542 243.685 231.542Z" fill="white"/>
<path d="M242.292 231.741C242.402 231.741 242.491 231.652 242.491 231.542C242.491 231.432 242.402 231.343 242.292 231.343C242.182 231.343 242.093 231.432 242.093 231.542C242.093 231.652 242.182 231.741 242.292 231.741Z" fill="white"/>
<path d="M246.338 225.106C246.448 225.106 246.537 225.017 246.537 224.907C246.537 224.797 246.448 224.708 246.338 224.708C246.228 224.708 246.139 224.797 246.139 224.907C246.139 225.017 246.228 225.106 246.338 225.106Z" fill="#FF4000"/>
<path d="M264.356 212.188C264.104 211.648 263.904 211.266 263.834 211.135C259.547 212.193 256.687 211.299 256.235 211.141C256.015 211.558 254.638 214.222 254.081 216.776C253.578 219.08 253.87 220.624 254.949 221.366L254.98 221.389L254.987 221.394C256.178 222.178 257.314 222.873 258.362 223.459C258.504 223.538 258.637 223.611 258.762 223.679L258.776 223.686L258.785 223.698C258.929 223.879 259.063 224.068 259.187 224.265C259.418 224.589 259.559 224.969 259.594 225.366V236.809L259.522 236.81C256.787 236.866 255.094 237.33 255.094 237.727C255.094 238.164 257.124 238.65 260.036 238.65C262.949 238.65 264.979 238.164 264.979 237.727C264.979 237.336 263.315 236.874 260.626 236.812L260.554 236.811L260.621 226.226C260.623 225.51 260.789 224.803 261.108 224.161C261.162 224.053 261.221 223.948 261.281 223.85C261.33 223.77 261.382 223.692 261.435 223.619L261.445 223.606L261.459 223.598C261.594 223.524 261.737 223.444 261.888 223.358L261.906 223.349C262.899 222.788 263.968 222.13 265.086 221.393C266.083 220.736 266.43 219.406 266.118 217.442C265.82 215.569 264.996 213.551 264.356 212.188Z" fill="#D0CDE1"/>
<path d="M264.613 221.153C263.441 221.926 262.474 222.505 261.735 222.922H261.734C260.655 222.849 259.572 222.879 258.499 223.013C257.741 222.59 256.718 221.983 255.46 221.153C255.448 221.145 255.436 221.137 255.424 221.129V221.128C254.27 220.334 254.242 218.652 254.617 216.932C255.572 216.826 257.095 216.872 259.141 217.604C261.564 218.469 264.1 217.98 265.57 217.535C265.811 219.052 265.664 220.46 264.613 221.153Z" fill="#FF4000"/>
<path d="M257.649 216.31C257.832 216.31 257.98 216.161 257.98 215.978C257.98 215.795 257.832 215.646 257.649 215.646C257.466 215.646 257.317 215.795 257.317 215.978C257.317 216.161 257.466 216.31 257.649 216.31Z" fill="#FF4000"/>
<path d="M256.72 219.362C256.903 219.362 257.052 219.213 257.052 219.03C257.052 218.847 256.903 218.698 256.72 218.698C256.537 218.698 256.389 218.847 256.389 219.03C256.389 219.213 256.537 219.362 256.72 219.362Z" fill="white"/>
<path d="M258.445 216.973C258.555 216.973 258.644 216.884 258.644 216.774C258.644 216.664 258.555 216.575 258.445 216.575C258.335 216.575 258.246 216.664 258.246 216.774C258.246 216.884 258.335 216.973 258.445 216.973Z" fill="#FF4000"/>
<path d="M259.241 220.755C259.35 220.755 259.44 220.666 259.44 220.556C259.44 220.446 259.35 220.357 259.241 220.357C259.131 220.357 259.042 220.446 259.042 220.556C259.042 220.666 259.131 220.755 259.241 220.755Z" fill="white"/>
<path d="M257.848 220.955C257.958 220.955 258.047 220.865 258.047 220.755C258.047 220.646 257.958 220.556 257.848 220.556C257.738 220.556 257.649 220.646 257.649 220.755C257.649 220.865 257.738 220.955 257.848 220.955Z" fill="white"/>
<path d="M261.893 214.319C262.003 214.319 262.092 214.23 262.092 214.12C262.092 214.01 262.003 213.921 261.893 213.921C261.784 213.921 261.694 214.01 261.694 214.12C261.694 214.23 261.784 214.319 261.893 214.319Z" fill="#FF4000"/>
<defs>
<linearGradient id="paint0_linear_324_45" x1="65.7342" y1="61.3636" x2="457.405" y2="123.61" gradientUnits="userSpaceOnUse">
<stop stop-color="#14499E"/>
<stop offset="1" stop-color="#1B71D7"/>
</linearGradient>
</defs>
</svg>
