<svg width="475" height="474" viewBox="0 0 475 474" fill="none" xmlns="http://www.w3.org/2000/svg">
<path d="M474.127 237.226C474.127 367.841 368.243 473.726 237.627 473.726C107.012 473.726 1.12744 367.841 1.12744 237.226C1.12744 106.61 107.012 0.725586 237.627 0.725586C368.243 0.725586 474.127 106.61 474.127 237.226ZM3.79169 237.226C3.79169 366.37 108.484 471.061 237.627 471.061C366.771 471.061 471.463 366.37 471.463 237.226C471.463 108.082 366.771 3.38983 237.627 3.38983C108.484 3.38983 3.79169 108.082 3.79169 237.226Z" fill="url(#paint0_linear_324_45)"/>
<g clip-path="url(#clip0_324_45)">
<path d="M199.656 143.624H191.572H144.98C145.165 143.557 145.165 143.557 144.98 143.624H137.43C135.77 143.624 134.128 143.951 132.595 144.586C131.062 145.22 129.669 146.15 128.496 147.323C127.323 148.495 126.392 149.887 125.757 151.419C125.122 152.951 124.796 154.593 124.796 156.251V316.285C124.796 317.943 125.122 319.585 125.757 321.117C126.392 322.649 127.323 324.041 128.496 325.213C129.669 326.386 131.062 327.316 132.595 327.95C134.128 328.585 135.77 328.912 137.43 328.912H199.656C201.315 328.912 202.958 328.585 204.491 327.95C206.024 327.316 207.416 326.386 208.59 325.213C209.763 324.041 210.693 322.649 211.328 321.117C211.963 319.585 212.29 317.943 212.29 316.285V156.251C212.29 154.593 211.963 152.951 211.328 151.419C210.693 149.887 209.763 148.495 208.59 147.323C207.416 146.15 206.024 145.22 204.491 144.586C202.958 143.951 201.315 143.624 199.656 143.624Z" fill="#14499E" fill-opacity="0.03"/>
<path d="M150.21 176.158H146.494C146.364 176.158 146.238 176.21 146.146 176.302C146.054 176.394 146.002 176.519 146.002 176.65V178.28C146.002 178.41 146.054 178.536 146.146 178.628C146.238 178.72 146.364 178.772 146.494 178.772H147.11V181.214H149.594V178.772H150.21C150.34 178.772 150.466 178.72 150.558 178.628C150.65 178.536 150.702 178.41 150.702 178.28V176.65C150.702 176.519 150.65 176.394 150.558 176.302C150.466 176.21 150.34 176.158 150.21 176.158V176.158Z" fill="#E6E6E6"/>
<path d="M153.931 191.074C151.656 187.746 150.492 183.784 150.608 179.755C150.61 179.662 150.58 179.572 150.523 179.498C150.465 179.425 150.384 179.374 150.294 179.354V178.649H146.37V179.344H146.316C146.209 179.344 146.106 179.387 146.031 179.462C145.956 179.538 145.913 179.64 145.913 179.747C145.913 179.757 145.914 179.766 145.915 179.776C146.224 184.083 145.18 187.945 142.783 191.363C142.645 191.559 142.575 191.795 142.582 192.035L143.011 205.299C143.022 205.595 143.146 205.876 143.358 206.082C143.57 206.289 143.854 206.405 144.15 206.408H153.026C153.325 206.405 153.612 206.286 153.825 206.075C154.038 205.865 154.16 205.579 154.165 205.28L154.331 192.401C154.336 191.928 154.196 191.465 153.931 191.074Z" fill="#E6E6E6"/>
<path d="M152.526 195.48H144.801C144.686 195.48 144.573 195.505 144.47 195.552C144.366 195.6 144.273 195.67 144.199 195.757C144.124 195.843 144.07 195.945 144.038 196.055C144.007 196.165 143.999 196.28 144.017 196.393L145.184 203.977H151.888L153.306 196.419C153.327 196.304 153.323 196.186 153.294 196.074C153.265 195.961 153.211 195.856 153.136 195.766C153.062 195.677 152.969 195.605 152.863 195.555C152.758 195.506 152.643 195.48 152.526 195.48V195.48Z" fill="white"/>
<path d="M191.569 215.893H187.853C187.723 215.893 187.597 215.945 187.505 216.037C187.413 216.13 187.361 216.255 187.361 216.385V218.015C187.361 218.146 187.413 218.271 187.505 218.363C187.597 218.456 187.723 218.508 187.853 218.508H188.469V220.95H190.953V218.508H191.569C191.699 218.508 191.825 218.456 191.917 218.363C192.009 218.271 192.061 218.146 192.061 218.015V216.385C192.061 216.255 192.009 216.13 191.917 216.037C191.825 215.945 191.699 215.893 191.569 215.893Z" fill="#E6E6E6"/>
<path d="M195.29 230.81C193.015 227.482 191.851 223.52 191.967 219.491C191.969 219.398 191.939 219.307 191.882 219.234C191.824 219.161 191.743 219.11 191.653 219.089V218.385H187.729V219.079H187.675C187.622 219.08 187.569 219.09 187.521 219.11C187.472 219.131 187.427 219.16 187.39 219.198C187.353 219.235 187.323 219.28 187.303 219.328C187.283 219.377 187.272 219.43 187.272 219.482C187.272 219.492 187.273 219.502 187.274 219.512C187.583 223.818 186.539 227.681 184.142 231.098C184.004 231.295 183.934 231.531 183.941 231.77L184.37 245.035C184.381 245.331 184.505 245.611 184.717 245.818C184.929 246.024 185.213 246.141 185.509 246.143H194.385C194.684 246.141 194.971 246.022 195.184 245.811C195.397 245.6 195.519 245.315 195.524 245.015L195.69 232.137C195.695 231.664 195.555 231.201 195.29 230.81V230.81Z" fill="#E6E6E6"/>
<path d="M193.885 235.216H186.16C186.045 235.216 185.932 235.24 185.829 235.288C185.725 235.336 185.632 235.405 185.558 235.492C185.483 235.579 185.429 235.681 185.397 235.791C185.366 235.9 185.358 236.016 185.376 236.129L186.543 243.713H193.247L194.665 236.154C194.686 236.04 194.682 235.922 194.653 235.809C194.624 235.697 194.57 235.592 194.495 235.502C194.421 235.412 194.328 235.34 194.222 235.291C194.117 235.241 194.002 235.216 193.885 235.216H193.885Z" fill="white"/>
<path d="M144.986 272.068H143.224C143.162 272.068 143.103 272.092 143.059 272.136C143.015 272.18 142.99 272.239 142.99 272.301V273.074C142.99 273.136 143.015 273.196 143.059 273.239C143.103 273.283 143.162 273.308 143.224 273.308H143.516V274.466H144.694V273.308H144.986C145.048 273.308 145.108 273.283 145.152 273.239C145.195 273.196 145.22 273.136 145.22 273.074V272.301C145.22 272.239 145.195 272.18 145.152 272.136C145.108 272.092 145.048 272.068 144.986 272.068Z" fill="#E6E6E6"/>
<path d="M146.752 279.143C145.672 277.565 145.12 275.685 145.175 273.774C145.176 273.73 145.162 273.687 145.135 273.652C145.108 273.617 145.069 273.593 145.026 273.584V273.25H143.165V273.579H143.139C143.114 273.579 143.089 273.584 143.066 273.594C143.043 273.603 143.022 273.617 143.004 273.635C142.987 273.653 142.972 273.674 142.963 273.697C142.953 273.72 142.948 273.745 142.948 273.77C142.948 273.775 142.949 273.779 142.949 273.784C143.121 275.734 142.594 277.682 141.464 279.28C141.398 279.373 141.365 279.485 141.368 279.599L141.572 285.891C141.577 286.031 141.636 286.164 141.736 286.262C141.837 286.36 141.972 286.415 142.112 286.417H146.322C146.464 286.415 146.6 286.359 146.701 286.259C146.802 286.159 146.86 286.024 146.863 285.882L146.941 279.773C146.944 279.548 146.877 279.329 146.752 279.143V279.143Z" fill="#E6E6E6"/>
<path d="M146.146 281.456H142.129V283.463H146.146V281.456Z" fill="white"/>
<path d="M153.19 272.068H151.428C151.366 272.068 151.306 272.092 151.263 272.136C151.219 272.18 151.194 272.239 151.194 272.301V273.074C151.194 273.136 151.219 273.196 151.263 273.239C151.306 273.283 151.366 273.308 151.428 273.308H151.72V274.466H152.898V273.308H153.19C153.252 273.308 153.312 273.283 153.355 273.239C153.399 273.196 153.424 273.136 153.424 273.074V272.301C153.424 272.239 153.399 272.18 153.355 272.136C153.312 272.092 153.252 272.068 153.19 272.068Z" fill="#E6E6E6"/>
<path d="M154.955 279.143C153.876 277.565 153.324 275.685 153.379 273.774C153.38 273.73 153.366 273.687 153.339 273.652C153.311 273.617 153.273 273.593 153.23 273.584V273.25H151.369V273.579H151.343C151.318 273.579 151.293 273.584 151.27 273.594C151.247 273.603 151.226 273.617 151.208 273.635C151.19 273.653 151.176 273.674 151.167 273.697C151.157 273.72 151.152 273.745 151.152 273.77C151.152 273.775 151.152 273.779 151.153 273.784C151.325 275.734 150.798 277.682 149.667 279.28C149.602 279.373 149.569 279.485 149.572 279.599L149.776 285.891C149.781 286.031 149.839 286.164 149.94 286.262C150.041 286.36 150.175 286.415 150.316 286.417H154.526C154.668 286.415 154.804 286.359 154.905 286.259C155.006 286.159 155.064 286.024 155.067 285.882L155.145 279.773C155.147 279.548 155.081 279.329 154.955 279.143Z" fill="#E6E6E6"/>
<path d="M154.349 281.456H150.333V283.463H154.349V281.456Z" fill="white"/>
<path d="M161.394 272.068H159.632C159.57 272.068 159.51 272.092 159.466 272.136C159.423 272.18 159.398 272.239 159.398 272.301V273.074C159.398 273.136 159.423 273.196 159.466 273.239C159.51 273.283 159.57 273.308 159.632 273.308H159.924V274.466H161.102V273.308H161.394C161.456 273.308 161.515 273.283 161.559 273.239C161.603 273.196 161.628 273.136 161.628 273.074V272.301C161.628 272.239 161.603 272.18 161.559 272.136C161.515 272.092 161.456 272.068 161.394 272.068Z" fill="#E6E6E6"/>
<path d="M163.159 279.143C162.08 277.565 161.528 275.685 161.583 273.774C161.584 273.73 161.57 273.687 161.542 273.652C161.515 273.617 161.477 273.593 161.434 273.584V273.25H159.573V273.579H159.547C159.522 273.579 159.497 273.584 159.474 273.594C159.451 273.603 159.43 273.617 159.412 273.635C159.394 273.653 159.38 273.674 159.371 273.697C159.361 273.72 159.356 273.745 159.356 273.77C159.356 273.775 159.356 273.779 159.357 273.784C159.528 275.734 159.002 277.682 157.871 279.28C157.806 279.373 157.772 279.485 157.776 279.599L157.979 285.891C157.984 286.031 158.043 286.164 158.144 286.262C158.245 286.36 158.379 286.415 158.52 286.417H162.73C162.872 286.415 163.008 286.359 163.109 286.259C163.21 286.159 163.268 286.024 163.27 285.882L163.349 279.773C163.351 279.548 163.285 279.329 163.159 279.143Z" fill="#E6E6E6"/>
<path d="M162.553 281.456H158.536V283.463H162.553V281.456Z" fill="white"/>
<path d="M185.114 256.696H181.399C181.334 256.696 181.27 256.708 181.21 256.733C181.151 256.758 181.096 256.794 181.051 256.84C181.005 256.885 180.969 256.94 180.944 256.999C180.919 257.059 180.906 257.123 180.906 257.188V258.818C180.906 258.948 180.958 259.074 181.051 259.166C181.143 259.258 181.268 259.31 181.399 259.31H182.015V261.752H184.499V259.31H185.114C185.245 259.31 185.37 259.258 185.463 259.166C185.555 259.074 185.607 258.948 185.607 258.818V257.188C185.607 257.123 185.594 257.059 185.569 256.999C185.545 256.94 185.508 256.885 185.463 256.84C185.417 256.794 185.363 256.758 185.303 256.733C185.243 256.708 185.179 256.696 185.114 256.696V256.696Z" fill="#E6E6E6"/>
<path d="M188.836 271.612C186.56 268.284 185.397 264.322 185.513 260.293C185.515 260.2 185.484 260.11 185.427 260.036C185.37 259.963 185.289 259.912 185.198 259.892V259.187H181.274V259.882H181.22C181.167 259.882 181.115 259.892 181.066 259.913C181.017 259.933 180.973 259.963 180.936 260C180.898 260.037 180.869 260.082 180.849 260.131C180.828 260.179 180.818 260.232 180.818 260.285C180.818 260.294 180.818 260.304 180.819 260.314C181.128 264.621 180.084 268.483 177.688 271.901C177.55 272.097 177.479 272.333 177.487 272.573L177.916 285.837C177.926 286.133 178.05 286.414 178.263 286.62C178.475 286.827 178.759 286.943 179.055 286.945H187.93C188.23 286.943 188.517 286.824 188.729 286.613C188.942 286.402 189.065 286.117 189.07 285.818L189.235 272.939C189.24 272.466 189.101 272.003 188.836 271.612Z" fill="#E6E6E6"/>
<path d="M187.431 276.018H179.705C179.591 276.018 179.478 276.043 179.374 276.091C179.27 276.138 179.178 276.208 179.103 276.295C179.029 276.381 178.974 276.483 178.943 276.593C178.911 276.703 178.904 276.818 178.921 276.931L180.089 284.515H186.792L188.21 276.957C188.232 276.842 188.228 276.725 188.198 276.612C188.169 276.499 188.115 276.394 188.041 276.305C187.967 276.215 187.873 276.143 187.768 276.093C187.662 276.044 187.547 276.018 187.431 276.018V276.018Z" fill="white"/>
<path d="M187.143 208.115H164.995C166.544 199.749 166.188 189.645 164.995 178.78H187.143C185.982 189.645 185.635 199.749 187.143 208.115Z" fill="#E6E6E6"/>
<path d="M176.202 197.981C179.15 197.981 181.539 195.594 181.539 192.648C181.539 189.702 179.15 187.314 176.202 187.314C173.255 187.314 170.866 189.702 170.866 192.648C170.866 195.594 173.255 197.981 176.202 197.981Z" fill="white"/>
<path d="M166.863 247.051H144.716C146.265 238.684 145.908 228.581 144.716 217.716H166.863C165.703 228.581 165.356 238.684 166.863 247.051Z" fill="#E6E6E6"/>
<path d="M155.923 236.917C158.871 236.917 161.26 234.529 161.26 231.583C161.26 228.638 158.871 226.25 155.923 226.25C152.976 226.25 150.587 228.638 150.587 231.583C150.587 234.529 152.976 236.917 155.923 236.917Z" fill="white"/>
<path d="M199.684 209.982H177.537C179.085 201.615 178.729 191.512 177.537 180.647H199.684C198.523 191.512 198.176 201.615 199.684 209.982Z" fill="#E6E6E6"/>
<path d="M188.744 199.848C191.691 199.848 194.08 197.46 194.08 194.515C194.08 191.569 191.691 189.181 188.744 189.181C185.796 189.181 183.407 191.569 183.407 194.515C183.407 197.46 185.796 199.848 188.744 199.848Z" fill="white"/>
<path d="M199.684 208.649H177.537C179.085 200.282 178.729 190.179 177.537 179.314H199.684C198.523 190.179 198.176 200.282 199.684 208.649Z" fill="#E6E6E6"/>
<path d="M188.744 198.515C191.691 198.515 194.08 196.127 194.08 193.181C194.08 190.236 191.691 187.848 188.744 187.848C185.796 187.848 183.407 190.236 183.407 193.181C183.407 196.127 185.796 198.515 188.744 198.515Z" fill="white"/>
<path d="M199.684 209.982H177.537C179.085 201.615 178.729 191.512 177.537 180.647H199.684C198.523 191.512 198.176 201.615 199.684 209.982Z" fill="#E6E6E6"/>
<path d="M188.744 199.848C191.691 199.848 194.08 197.46 194.08 194.515C194.08 191.569 191.691 189.181 188.744 189.181C185.796 189.181 183.407 191.569 183.407 194.515C183.407 197.46 185.796 199.848 188.744 199.848Z" fill="white"/>
<path d="M204.754 206.515H132.175V214.516H204.754V206.515Z" fill="#E6E6E6"/>
<path d="M204.754 246.251H132.175V254.251H204.754V246.251Z" fill="#E6E6E6"/>
<path d="M204.754 285.986H132.175V293.987H204.754V285.986Z" fill="#E6E6E6"/>
<path d="M331.007 318.444L312.925 305.662C319.024 299.725 324.57 291.271 329.874 281.712L347.956 294.494C340.731 302.695 334.61 310.743 331.007 318.444Z" fill="#14499E"/>
<path d="M331.012 304.835C333.959 304.835 336.348 302.448 336.348 299.502C336.348 296.556 333.959 294.168 331.012 294.168C328.064 294.168 325.675 296.556 325.675 299.502C325.675 302.448 328.064 304.835 331.012 304.835Z" fill="white"/>
<path d="M243.784 260.118H241.799C241.729 260.118 241.662 260.146 241.613 260.195C241.563 260.245 241.536 260.311 241.536 260.381V261.252C241.536 261.286 241.542 261.321 241.556 261.353C241.569 261.384 241.588 261.413 241.613 261.438C241.637 261.462 241.666 261.482 241.698 261.495C241.73 261.508 241.764 261.515 241.799 261.515H242.128V262.819H243.455V261.515H243.784C243.853 261.515 243.92 261.487 243.97 261.438C244.019 261.389 244.047 261.322 244.047 261.252V260.381C244.047 260.311 244.019 260.245 243.97 260.195C243.92 260.146 243.853 260.118 243.784 260.118V260.118Z" fill="#E6E6E6"/>
<path d="M245.772 268.087C244.556 266.309 243.935 264.193 243.996 262.04C243.997 261.991 243.981 261.942 243.951 261.903C243.92 261.864 243.877 261.837 243.828 261.826V261.449H241.732V261.82H241.703C241.675 261.82 241.647 261.826 241.621 261.837C241.595 261.848 241.571 261.864 241.551 261.884C241.531 261.904 241.516 261.927 241.505 261.953C241.494 261.98 241.488 262.007 241.488 262.036C241.488 262.041 241.489 262.046 241.489 262.051C241.683 264.248 241.09 266.441 239.816 268.241C239.742 268.346 239.705 268.472 239.709 268.6L239.938 275.686C239.944 275.844 240.01 275.994 240.123 276.104C240.237 276.215 240.388 276.277 240.547 276.278H245.288C245.448 276.277 245.601 276.213 245.715 276.101C245.829 275.988 245.894 275.836 245.897 275.676L245.985 268.796C245.988 268.543 245.913 268.296 245.772 268.087V268.087Z" fill="#14499E"/>
<path opacity="0.2" d="M243.37 260.402C243.37 260.552 243.31 260.697 243.204 260.803C243.097 260.909 242.953 260.969 242.802 260.969C242.652 260.969 242.507 260.909 242.401 260.803C242.294 260.697 242.234 260.552 242.234 260.402" fill="black"/>
<path d="M244.848 269.452H240.846V272.119H244.848V269.452Z" fill="white"/>
<path d="M306.593 287.801H302.878C302.747 287.801 302.622 287.853 302.53 287.945C302.437 288.037 302.385 288.163 302.385 288.293V289.923C302.385 290.054 302.437 290.179 302.53 290.271C302.622 290.363 302.747 290.415 302.878 290.415H303.494V292.857H305.977V290.415H306.593C306.724 290.415 306.849 290.363 306.941 290.271C307.034 290.179 307.086 290.054 307.086 289.923V288.293C307.086 288.163 307.034 288.037 306.941 287.945C306.849 287.853 306.724 287.801 306.593 287.801V287.801Z" fill="#E6E6E6"/>
<path d="M310.314 302.717C308.039 299.39 306.876 295.428 306.991 291.399C306.994 291.306 306.963 291.215 306.906 291.142C306.849 291.069 306.768 291.017 306.677 290.997V290.293H302.753V290.987H302.699C302.646 290.987 302.594 290.998 302.545 291.018C302.496 291.038 302.452 291.068 302.414 291.105C302.377 291.143 302.348 291.187 302.327 291.236C302.307 291.285 302.297 291.337 302.297 291.39C302.297 291.4 302.297 291.41 302.298 291.419C302.607 295.726 301.563 299.588 299.166 303.006C299.029 303.202 298.958 303.438 298.966 303.678L299.395 316.943C299.405 317.239 299.529 317.519 299.742 317.725C299.954 317.932 300.238 318.049 300.534 318.051H309.409C309.709 318.048 309.995 317.929 310.208 317.719C310.421 317.508 310.543 317.222 310.549 316.923L310.714 304.044C310.719 303.572 310.58 303.109 310.314 302.717V302.717Z" fill="#14499E"/>
<path opacity="0.2" d="M305.819 288.332C305.819 288.613 305.707 288.884 305.507 289.083C305.308 289.282 305.038 289.394 304.756 289.394C304.474 289.394 304.204 289.282 304.004 289.083C303.805 288.884 303.693 288.613 303.693 288.332" fill="black"/>
<path d="M308.909 307.123H301.184C301.07 307.123 300.957 307.148 300.853 307.196C300.749 307.243 300.657 307.313 300.582 307.4C300.508 307.487 300.453 307.588 300.422 307.698C300.39 307.808 300.383 307.924 300.4 308.037L301.568 315.62H308.271L309.689 308.062C309.711 307.948 309.706 307.83 309.677 307.717C309.648 307.604 309.594 307.499 309.52 307.41C309.445 307.32 309.352 307.248 309.247 307.198C309.141 307.149 309.026 307.123 308.909 307.123V307.123Z" fill="white"/>
<path d="M295.993 318.423H273.846C275.394 310.056 275.038 299.953 273.846 289.088H295.993C294.832 299.953 294.485 310.056 295.993 318.423Z" fill="#14499E"/>
<path d="M285.053 308.289C288 308.289 290.389 305.901 290.389 302.955C290.389 300.01 288 297.622 285.053 297.622C282.105 297.622 279.716 300.01 279.716 302.955C279.716 305.901 282.105 308.289 285.053 308.289Z" fill="white"/>
<path d="M205.406 226.102L210.377 225.65L213.542 217.971L207.892 214.808L205.406 226.102Z" fill="#FFB8B8"/>
<path d="M251.034 247.184C251.2 246.772 251.264 246.326 251.224 245.884C251.183 245.442 251.038 245.016 250.8 244.641C250.562 244.266 250.239 243.953 249.856 243.727C249.473 243.502 249.042 243.371 248.599 243.344L240.88 242.884L239.743 246.662L247.69 248.843C248.354 249.025 249.062 248.957 249.679 248.651C250.295 248.345 250.778 247.822 251.034 247.184V247.184Z" fill="#FFB8B8"/>
<path d="M242.745 248.906L242.66 241.818L225.514 239.084L212.304 223.942C211.617 223.154 210.667 222.642 209.631 222.501C208.595 222.359 207.542 222.597 206.669 223.172C206.14 223.52 205.694 223.979 205.362 224.519C205.03 225.058 204.821 225.663 204.749 226.292C204.677 226.92 204.745 227.557 204.946 228.157C205.148 228.757 205.478 229.305 205.915 229.764L216.813 243.167L242.745 248.906Z" fill="#575A89"/>
<path d="M201.564 328.645H206.084L217.295 277.986L228.909 293.635L235.689 327.515H239.983L239.079 291.151L223.937 252.302H209.022C204.946 259.675 201.748 267.274 205.406 275.114L201.564 328.645Z" fill="#2F2E41"/>
<path d="M232.918 331.722C232.868 331.881 232.853 332.05 232.873 332.216C232.893 332.382 232.949 332.542 233.036 332.686C233.123 332.829 233.24 332.952 233.378 333.046C233.516 333.141 233.673 333.205 233.838 333.234L244.898 335.196C245.335 335.276 245.786 335.193 246.167 334.963C246.547 334.734 246.83 334.373 246.962 333.949V333.949C247.091 333.544 247.073 333.107 246.912 332.714C246.75 332.321 246.455 331.997 246.078 331.8C243.646 330.552 241.553 328.733 239.978 326.5C238.763 327.631 237.404 327.525 235.961 326.691L234.431 326.882L232.918 331.722Z" fill="#2F2E41"/>
<path d="M199.471 331.722C199.421 331.881 199.406 332.05 199.426 332.216C199.446 332.382 199.502 332.542 199.589 332.686C199.676 332.829 199.792 332.952 199.931 333.046C200.069 333.141 200.226 333.205 200.391 333.234L211.451 335.196C211.888 335.276 212.339 335.193 212.719 334.963C213.1 334.734 213.383 334.373 213.515 333.949V333.949C213.644 333.544 213.626 333.107 213.465 332.714C213.303 332.321 213.008 331.997 212.631 331.8C210.199 330.552 208.106 328.733 206.531 326.5C205.316 327.631 203.957 327.525 202.514 326.691L200.984 326.882L199.471 331.722Z" fill="#2F2E41"/>
<path d="M213.654 220.794C217.149 220.794 219.982 217.963 219.982 214.47C219.982 210.977 217.149 208.146 213.654 208.146C210.16 208.146 207.327 210.977 207.327 214.47C207.327 217.963 210.16 220.794 213.654 220.794Z" fill="#FFB8B8"/>
<path d="M208.005 253.996L224.502 253.544L219.657 238.304C222.668 233.48 219.638 228.661 215.349 223.843L211.959 221.584L206.536 221.133C204.187 223.644 202.902 226.966 202.95 230.403C203.057 237.763 204.361 245.775 208.005 253.996Z" fill="#575A89"/>
<path d="M245.908 264.254C246.223 263.94 246.458 263.556 246.594 263.134C246.731 262.712 246.765 262.263 246.694 261.824C246.623 261.386 246.449 260.971 246.186 260.613C245.922 260.256 245.578 259.965 245.181 259.767L238.265 256.309L235.733 259.335L242.181 264.465C242.719 264.893 243.397 265.109 244.085 265.07C244.772 265.031 245.421 264.741 245.908 264.254V264.254Z" fill="#FFB8B8"/>
<path d="M237.61 262.579L240.322 256.029L225.634 246.773L219.449 227.659C219.127 226.665 218.456 225.82 217.559 225.283C216.662 224.745 215.601 224.551 214.571 224.735V224.735C213.948 224.847 213.357 225.094 212.84 225.46C212.323 225.825 211.892 226.299 211.579 226.849C211.265 227.399 211.076 228.011 211.025 228.642C210.974 229.272 211.063 229.907 211.284 230.499L216.027 247.107L237.61 262.579Z" fill="#575A89"/>
<path d="M203.259 211.985C203.259 214.446 204.858 218.257 206.875 219.89C208.232 220.989 210.025 220.943 210.717 219.439C211.426 217.895 213.871 214.267 218.174 211.985C223.911 208.943 216.14 203.738 210.717 204.531C206.641 205.128 203.259 207.869 203.259 211.985Z" fill="#2F2E41"/>
<path d="M207.101 208.597C209.597 208.597 211.621 206.575 211.621 204.08C211.621 201.585 209.597 199.562 207.101 199.562C204.604 199.562 202.581 201.585 202.581 204.08C202.581 206.575 204.604 208.597 207.101 208.597Z" fill="#2F2E41"/>
<path d="M212.298 202.499C212.298 201.36 211.867 200.263 211.092 199.429C210.316 198.594 209.254 198.083 208.118 197.999C208.23 197.99 208.342 197.981 208.457 197.981C209.655 197.981 210.805 198.457 211.653 199.305C212.5 200.152 212.976 201.301 212.976 202.499C212.976 203.697 212.5 204.846 211.653 205.693C210.805 206.54 209.655 207.016 208.457 207.016C208.342 207.016 208.23 207.007 208.118 206.999C209.254 206.914 210.316 206.403 211.092 205.569C211.867 204.734 212.298 203.638 212.298 202.499Z" fill="#2F2E41"/>
<path d="M213.767 216.728C214.329 216.728 214.784 216.121 214.784 215.373C214.784 214.625 214.329 214.018 213.767 214.018C213.206 214.018 212.75 214.625 212.75 215.373C212.75 216.121 213.206 216.728 213.767 216.728Z" fill="#FFB8B8"/>
<path d="M341.83 320.36H271.469L256.57 249.966H243.854V246.808H259.132L274.031 317.202H341.83V320.36Z" fill="#3F3D56"/>
<path d="M281.78 333.221C285.521 333.221 288.553 330.19 288.553 326.452C288.553 322.714 285.521 319.683 281.78 319.683C278.04 319.683 275.008 322.714 275.008 326.452C275.008 330.19 278.04 333.221 281.78 333.221Z" fill="#3F3D56"/>
<path d="M332.348 333.221C336.088 333.221 339.121 330.19 339.121 326.452C339.121 322.714 336.088 319.683 332.348 319.683C328.608 319.683 325.576 322.714 325.576 326.452C325.576 330.19 328.608 333.221 332.348 333.221Z" fill="#3F3D56"/>
<path d="M340.547 318.873H272.09L260.012 259.217H351.882C352.35 259.217 352.814 259.318 353.239 259.514C353.665 259.71 354.043 259.996 354.348 260.352C354.653 260.708 354.877 261.126 355.004 261.577C355.132 262.028 355.161 262.501 355.088 262.964L343.753 316.133C343.636 316.898 343.248 317.595 342.659 318.098C342.071 318.601 341.321 318.876 340.547 318.873V318.873ZM272.834 317.97H340.547C341.106 317.973 341.647 317.774 342.071 317.411C342.496 317.048 342.776 316.545 342.86 315.993L354.196 262.823C354.248 262.489 354.228 262.148 354.136 261.822C354.043 261.497 353.882 261.196 353.662 260.939C353.442 260.682 353.169 260.475 352.862 260.334C352.554 260.192 352.22 260.119 351.882 260.119H261.108L272.834 317.97Z" fill="#3F3D56"/>
<path d="M285.398 318.682L277.488 259.741L278.379 259.594L286.289 318.535L285.398 318.682Z" fill="#3F3D56"/>
<path d="M329.381 318.229L328.49 318.085L336.169 259.596L337.06 259.74L329.381 318.229Z" fill="#3F3D56"/>
<path d="M308.426 259.668H307.523V318.608H308.426V259.668Z" fill="#3F3D56"/>
<path d="M264.624 275.461L264.622 276.364L352.031 276.575L352.033 275.673L264.624 275.461Z" fill="#3F3D56"/>
<path d="M345.865 303.34L269.074 303.865L269.081 304.767L345.871 304.243L345.865 303.34Z" fill="#3F3D56"/>
<path d="M245.209 250.643C247.952 250.643 250.175 249.431 250.175 247.935C250.175 246.44 247.952 245.228 245.209 245.228C242.466 245.228 240.242 246.44 240.242 247.935C240.242 249.431 242.466 250.643 245.209 250.643Z" fill="#3F3D56"/>
</g>
<defs>
<linearGradient id="paint0_linear_324_45" x1="-0.772281" y1="3.11446" x2="496.255" y2="26.4586" gradientUnits="userSpaceOnUse">
<stop stop-color="#EA580C"/>
<stop offset="0.65626" stop-color="#F4A503"/>
<stop offset="1" stop-color="#FBBF24"/>
</linearGradient>
<clipPath id="clip0_324_45">
<rect width="235" height="196" fill="white" transform="translate(120.127 139.226)"/>
</clipPath>
</defs>
</svg>
