<svg width="718" height="596" viewBox="0 0 718 596" fill="none" xmlns="http://www.w3.org/2000/svg">
<g clip-path="url(#clip0_338_394)">
<path d="M424.127 0H215.584C183.149 0 156.855 26.2936 156.855 58.7284V535.272C156.855 567.706 183.149 594 215.584 594H424.127C456.562 594 482.855 567.706 482.855 535.272V58.7284C482.855 26.2936 456.562 0 424.127 0Z" fill="#3F3D56"/>
<path d="M477.355 58.7339V535.274C477.339 549.386 471.726 562.916 461.747 572.895C451.768 582.874 438.238 588.488 424.125 588.504H215.585C201.473 588.488 187.943 582.874 177.964 572.895C167.985 562.916 162.372 549.386 162.355 535.274V58.7339C162.372 44.6215 167.985 31.0917 177.964 21.1127C187.943 11.1336 201.473 5.52024 215.585 5.50391H242.855V14.9239C242.856 19.1885 244.55 23.2784 247.565 26.2939C250.581 29.3094 254.671 31.0037 258.935 31.0039H380.775C385.04 31.0037 389.13 29.3094 392.145 26.2939C395.161 23.2784 396.855 19.1885 396.855 14.9239V5.50391H424.125C438.238 5.52025 451.768 11.1336 461.747 21.1127C471.726 31.0917 477.339 44.6215 477.355 58.7339Z" fill="white"/>
<path d="M155.355 120.5C154.295 120.499 153.278 120.077 152.528 119.327C151.778 118.577 151.357 117.56 151.355 116.5V108.5C151.355 107.439 151.777 106.422 152.527 105.672C153.277 104.921 154.295 104.5 155.355 104.5C156.416 104.5 157.434 104.921 158.184 105.672C158.934 106.422 159.355 107.439 159.355 108.5V116.5C159.354 117.56 158.932 118.577 158.183 119.327C157.433 120.077 156.416 120.499 155.355 120.5V120.5Z" fill="#3F3D56"/>
<path d="M155.355 161.521C154.295 161.52 153.278 161.098 152.528 160.349C151.778 159.599 151.357 158.582 151.355 157.521V135.5C151.355 134.439 151.777 133.422 152.527 132.672C153.277 131.921 154.295 131.5 155.355 131.5C156.416 131.5 157.434 131.921 158.184 132.672C158.934 133.422 159.355 134.439 159.355 135.5V157.521C159.354 158.582 158.932 159.599 158.183 160.349C157.433 161.098 156.416 161.52 155.355 161.521V161.521Z" fill="#3F3D56"/>
<path d="M155.355 194.502C154.295 194.501 153.278 194.079 152.528 193.329C151.778 192.579 151.357 191.562 151.355 190.502V168.48C151.355 167.42 151.777 166.402 152.527 165.652C153.277 164.902 154.295 164.48 155.355 164.48C156.416 164.48 157.434 164.902 158.184 165.652C158.934 166.402 159.355 167.42 159.355 168.48V190.502C159.354 191.562 158.932 192.579 158.183 193.329C157.433 194.079 156.416 194.501 155.355 194.502V194.502Z" fill="#3F3D56"/>
<path d="M483.355 176.499C482.295 176.498 481.278 176.076 480.528 175.326C479.778 174.576 479.357 173.56 479.355 172.499V118.766C479.355 117.705 479.777 116.687 480.527 115.937C481.277 115.187 482.295 114.766 483.355 114.766C484.416 114.766 485.434 115.187 486.184 115.937C486.934 116.687 487.355 117.705 487.355 118.766V172.499C487.354 173.56 486.932 174.576 486.183 175.326C485.433 176.076 484.416 176.498 483.355 176.499V176.499Z" fill="#3F3D56"/>
<path d="M328.447 18.3477H297.447C296.784 18.3477 296.148 18.0843 295.68 17.6154C295.211 17.1466 294.947 16.5107 294.947 15.8477C294.947 15.1846 295.211 14.5487 295.68 14.0799C296.148 13.6111 296.784 13.3477 297.447 13.3477H328.447C329.11 13.3477 329.746 13.6111 330.215 14.0799C330.684 14.5487 330.947 15.1846 330.947 15.8477C330.947 16.5107 330.684 17.1466 330.215 17.6154C329.746 18.0843 329.11 18.3477 328.447 18.3477Z" fill="white"/>
<path d="M344.447 17.8477C345.552 17.8477 346.447 16.9522 346.447 15.8477C346.447 14.7431 345.552 13.8477 344.447 13.8477C343.343 13.8477 342.447 14.7431 342.447 15.8477C342.447 16.9522 343.343 17.8477 344.447 17.8477Z" fill="white"/>
<path d="M230.941 29.0742H203.941C202.615 29.0742 201.344 28.5474 200.406 27.6098C199.468 26.6721 198.941 25.4003 198.941 24.0742C198.941 22.7481 199.468 21.4764 200.406 20.5387C201.344 19.601 202.615 19.0742 203.941 19.0742H230.941C232.267 19.0742 233.539 19.601 234.477 20.5387C235.415 21.4764 235.941 22.7481 235.941 24.0742C235.941 25.4003 235.415 26.6721 234.477 27.6098C233.539 28.5474 232.267 29.0742 230.941 29.0742V29.0742Z" fill="#E6E6E6"/>
<path d="M333.355 238.695H306.355C305.029 238.695 303.758 238.169 302.82 237.231C301.882 236.293 301.355 235.021 301.355 233.695C301.355 232.369 301.882 231.097 302.82 230.16C303.758 229.222 305.029 228.695 306.355 228.695H333.355C334.682 228.695 335.953 229.222 336.891 230.16C337.829 231.097 338.355 232.369 338.355 233.695C338.355 235.021 337.829 236.293 336.891 237.231C335.953 238.169 334.682 238.695 333.355 238.695V238.695Z" fill="#E6E6E6"/>
<path d="M407.941 28.5742C410.427 28.5742 412.441 26.5595 412.441 24.0742C412.441 21.5889 410.427 19.5742 407.941 19.5742C405.456 19.5742 403.441 21.5889 403.441 24.0742C403.441 26.5595 405.456 28.5742 407.941 28.5742Z" fill="#E6E6E6"/>
<path d="M421.941 28.5742C424.427 28.5742 426.441 26.5595 426.441 24.0742C426.441 21.5889 424.427 19.5742 421.941 19.5742C419.456 19.5742 417.441 21.5889 417.441 24.0742C417.441 26.5595 419.456 28.5742 421.941 28.5742Z" fill="#E6E6E6"/>
<path d="M435.941 28.5742C438.427 28.5742 440.441 26.5595 440.441 24.0742C440.441 21.5889 438.427 19.5742 435.941 19.5742C433.456 19.5742 431.441 21.5889 431.441 24.0742C431.441 26.5595 433.456 28.5742 435.941 28.5742Z" fill="#E6E6E6"/>
<path d="M406.157 308.695H219.425C214.617 308.69 210.008 306.778 206.608 303.378C203.209 299.978 201.296 295.369 201.291 290.562V271.829C201.296 267.021 203.209 262.412 206.608 259.013C210.008 255.613 214.617 253.701 219.425 253.695H406.157C410.965 253.701 415.574 255.613 418.974 259.013C422.373 262.412 424.286 267.021 424.291 271.829V290.562C424.286 295.369 422.373 299.978 418.974 303.378C415.574 306.778 410.965 308.69 406.157 308.695V308.695ZM219.425 255.695C215.147 255.7 211.047 257.402 208.022 260.426C204.997 263.451 203.296 267.552 203.291 271.829V290.562C203.296 294.839 204.997 298.94 208.022 301.964C211.047 304.989 215.147 306.69 219.425 306.695H406.157C410.435 306.69 414.536 304.989 417.56 301.965C420.585 298.94 422.286 294.839 422.291 290.562V271.829C422.286 267.552 420.585 263.451 417.56 260.426C414.536 257.401 410.435 255.7 406.157 255.695H219.425Z" fill="#E6E6E6"/>
<path d="M333.355 377.695H306.355C305.029 377.695 303.758 377.169 302.82 376.231C301.882 375.293 301.355 374.021 301.355 372.695C301.355 371.369 301.882 370.097 302.82 369.16C303.758 368.222 305.029 367.695 306.355 367.695H333.355C334.682 367.695 335.953 368.222 336.891 369.16C337.829 370.097 338.355 371.369 338.355 372.695C338.355 374.021 337.829 375.293 336.891 376.231C335.953 377.169 334.682 377.695 333.355 377.695V377.695Z" fill="#E6E6E6"/>
<path d="M339.559 522.696H300.154C299.194 522.697 298.245 522.509 297.358 522.143C296.472 521.777 295.667 521.24 294.988 520.562C294.31 519.884 293.771 519.079 293.404 518.193C293.037 517.308 292.848 516.358 292.848 515.399C292.848 514.44 293.037 513.49 293.404 512.604C293.771 511.718 294.31 510.914 294.988 510.236C295.667 509.558 296.472 509.021 297.358 508.655C298.245 508.288 299.194 508.1 300.154 508.102H339.559C341.494 508.102 343.35 508.87 344.719 510.239C346.087 511.607 346.856 513.464 346.856 515.399C346.856 517.334 346.087 519.19 344.719 520.559C343.35 521.927 341.494 522.696 339.559 522.696Z" fill="#FF4000"/>
<path d="M406.157 447.695H219.425C214.617 447.69 210.008 445.778 206.608 442.378C203.209 438.978 201.296 434.369 201.291 429.562V410.829C201.296 406.021 203.209 401.412 206.608 398.013C210.008 394.613 214.617 392.701 219.425 392.695H406.157C410.965 392.701 415.574 394.613 418.974 398.013C422.373 401.412 424.286 406.021 424.291 410.829V429.562C424.286 434.369 422.373 438.978 418.974 442.378C415.574 445.778 410.965 447.69 406.157 447.695V447.695ZM219.425 394.695C215.147 394.7 211.047 396.402 208.022 399.426C204.997 402.451 203.296 406.552 203.291 410.829V429.562C203.296 433.839 204.997 437.94 208.022 440.964C211.047 443.989 215.147 445.69 219.425 445.695H406.157C410.435 445.69 414.536 443.989 417.56 440.965C420.585 437.94 422.286 433.839 422.291 429.562V410.829C422.286 406.552 420.585 402.451 417.56 399.426C414.536 396.402 410.435 394.7 406.157 394.695H219.425Z" fill="#E6E6E6"/>
<path d="M440.441 193.5H198.941V195.5H440.441V193.5Z" fill="#E6E6E6"/>
<path d="M434.159 272.866C434.394 274.538 435.272 276.052 436.606 277.086C437.94 278.12 439.625 278.593 441.302 278.404C441.643 278.36 441.979 278.289 442.307 278.189L455.742 296.371L467.367 292.8L446.27 269.883C445.753 268.553 444.81 267.431 443.588 266.693C442.367 265.955 440.935 265.642 439.517 265.803C438.711 265.902 437.933 266.16 437.226 266.56C436.519 266.96 435.898 267.496 435.399 268.136C434.899 268.776 434.531 269.509 434.314 270.291C434.097 271.074 434.037 271.892 434.136 272.698C434.143 272.754 434.151 272.81 434.159 272.866Z" fill="#FFB6B6"/>
<path d="M603.221 400.519C602.021 399.332 601.331 397.723 601.299 396.036C601.267 394.348 601.894 392.714 603.048 391.482C603.287 391.235 603.545 391.009 603.821 390.805L597.27 369.168L607.079 361.98L612.849 392.591C613.607 393.8 613.943 395.227 613.805 396.647C613.667 398.068 613.062 399.402 612.086 400.443C611.524 401.03 610.853 401.501 610.11 401.828C609.366 402.156 608.566 402.333 607.754 402.352C606.942 402.37 606.134 402.228 605.377 401.934C604.62 401.64 603.929 401.199 603.342 400.638C603.301 400.599 603.26 400.559 603.221 400.519Z" fill="#FFB6B6"/>
<path d="M547.623 582.429L537.722 582.428L533.012 544.238L547.625 544.239L547.623 582.429Z" fill="#FFB6B6"/>
<path d="M547.97 592.757L517.523 592.756V592.371C517.524 589.228 518.772 586.214 520.995 583.991C523.217 581.769 526.231 580.52 529.374 580.52H529.375L534.937 576.301L545.313 580.521L547.971 580.521L547.97 592.757Z" fill="#2F2E41"/>
<path d="M590.623 582.429L580.722 582.428L576.012 544.238L590.625 544.239L590.623 582.429Z" fill="#FFB6B6"/>
<path d="M590.97 592.757L560.523 592.756V592.371C560.524 589.228 561.772 586.214 563.995 583.991C566.217 581.769 569.231 580.52 572.374 580.52H572.375L577.937 576.301L588.313 580.521L590.971 580.521L590.97 592.757Z" fill="#2F2E41"/>
<path d="M518.292 377.151C518.292 377.151 507.022 392.863 515.157 420.007C523.292 447.151 518.725 471.419 521.009 476.285C523.292 481.151 527.889 485.772 524.091 489.462C520.292 493.151 518.292 496.151 521.292 497.151C524.292 498.151 534.292 568.151 534.292 568.151L551.292 569.151C551.292 569.151 557.451 536.634 550.872 510.393C550.872 510.393 552.316 491.343 549.304 485.747C546.292 480.151 546.883 485.198 547.088 478.175C547.201 473.095 547.941 468.049 549.292 463.151C550.292 459.151 550.872 418.836 550.872 418.836L572.972 468.635C573.636 470.478 573.885 472.445 573.702 474.395C573.292 477.151 573.289 481.269 573.79 482.71C574.292 484.151 574.851 484.454 574.572 487.303C574.292 490.151 574.292 565.693 574.292 565.693H593.292L602.292 490.151C600.673 488.357 599.326 486.336 598.292 484.151C596.292 480.151 596.214 479.931 597.253 477.041C598.292 474.151 598.292 468.521 598.292 466.836C598.292 465.151 599.331 388.654 586.312 377.403C573.292 366.151 518.292 377.151 518.292 377.151Z" fill="#2F2E41"/>
<path d="M576.637 257.068L557.657 252.15L548.797 239.93L527.756 242.516L523.277 259.185L508.297 267.88C508.297 267.88 516.576 355.451 514.607 360.26C512.638 365.068 505.576 364.671 511.607 370.87C517.638 377.068 518.436 374.571 517.037 381.32C515.637 388.068 505.436 395.21 517.037 395.139C528.637 395.068 598.638 394.068 596.638 386.068C594.638 378.068 594.669 380.1 591.653 375.084C588.638 370.068 586.608 372.871 587.623 365.47C588.638 358.068 587.638 353.068 587.638 349.068C587.638 345.068 584.287 308.72 584.287 308.72L576.637 257.068Z" fill="#3F3D56"/>
<path d="M517.418 266.201C517.418 266.201 498.638 264.069 494.638 273.069C490.638 282.069 480.558 300.809 480.558 300.809C480.558 300.809 472.698 292.587 471.938 288.861C471.292 285.697 470.937 290.982 465.658 285.261C463.292 282.697 465.292 282.697 462.292 281.697L456.292 279.697L446.292 288.697C446.292 288.697 446.096 299.571 451.292 299.697C456.488 299.823 449.292 297.697 456.292 304.697C459.906 308.311 456.591 307.712 462.615 311.391C468.638 315.069 467.959 315.053 469.799 317.061C471.638 319.069 481.512 320.531 481.512 320.531L525.733 296.061L517.418 266.201Z" fill="#3F3D56"/>
<path d="M566.77 260.852C566.77 260.852 574.823 249.053 588.586 264.381C602.35 279.71 612.642 349.686 611.996 352.198C611.35 354.71 607.72 353.269 612.035 357.489C616.35 361.71 619.35 358.71 616.35 361.71C613.35 364.71 607.089 367.533 612.22 368.621C617.35 369.71 597.392 375.701 597.392 375.701C597.392 375.701 594.484 374.638 594.361 367.631C594.292 363.696 596.292 361.696 593.292 360.696C590.292 359.696 593.981 353.018 593.666 351.864C593.35 350.71 574.35 299.71 574.35 299.71L566.77 260.852Z" fill="#3F3D56"/>
<path d="M535.118 237.838C547.851 237.838 558.174 227.516 558.174 214.782C558.174 202.049 547.851 191.727 535.118 191.727C522.385 191.727 512.062 202.049 512.062 214.782C512.062 227.516 522.385 237.838 535.118 237.838Z" fill="#FFB6B6"/>
<path d="M550.291 232.697C544.841 228.437 552.291 209.697 543.291 213.697C543.291 213.697 532.291 206.697 530.081 211.297C527.522 216.623 518.421 214.207 512.831 212.327C513.27 211.305 513.582 210.234 513.761 209.137C512.729 209.95 511.635 210.682 510.491 211.327C509.723 210.916 509.043 210.359 508.491 209.687C507.945 209.062 507.604 208.286 507.513 207.462C507.422 206.638 507.585 205.805 507.981 205.077C508.911 203.647 510.831 203.207 511.961 201.937C512.091 201.758 512.176 201.551 512.209 201.332C512.242 201.113 512.221 200.889 512.148 200.68C512.014 200.17 511.993 199.635 512.089 199.115C512.184 198.596 512.393 198.103 512.701 197.674C513.008 197.244 513.407 196.887 513.868 196.629C514.329 196.371 514.841 196.218 515.368 196.18C515.58 196.187 515.79 196.141 515.981 196.047C516.929 195.466 517.805 194.775 518.591 193.987C517.276 194.05 515.959 194.013 514.651 193.877C514.381 193.847 514.111 193.817 513.841 193.777C514.341 192.603 515.088 191.552 516.032 190.694C516.976 189.836 518.095 189.192 519.311 188.807C521.878 188.031 524.549 187.656 527.231 187.697C528.781 187.647 530.331 187.597 531.871 187.547C535.137 187.314 538.418 187.428 541.661 187.887C545.124 188.519 548.405 189.907 551.269 191.954C554.134 194.001 556.511 196.655 558.231 199.727C561.621 205.877 565.291 225.697 550.291 232.697Z" fill="#2F2E41"/>
<path d="M491.458 341.261L372.609 383.281C369.67 384.316 366.441 384.144 363.63 382.801C360.818 381.458 358.654 379.055 357.612 376.119L337.196 318.373C336.161 315.434 336.333 312.205 337.676 309.394C339.019 306.582 341.422 304.418 344.358 303.376L463.207 261.356C466.146 260.321 469.375 260.493 472.187 261.836C474.998 263.179 477.162 265.582 478.204 268.518L498.62 326.264C499.656 329.203 499.483 332.432 498.14 335.243C496.798 338.055 494.395 340.219 491.458 341.261Z" fill="#FF4000"/>
<path d="M365.191 316.784C357.313 321.968 347.217 318.067 343.686 312.384L344.249 312.064C350.955 307.884 360.915 310.213 365.191 316.784Z" fill="white"/>
<path d="M463.913 331.488C463.092 331.829 462.211 331.997 461.323 331.981C460.434 331.965 459.559 331.766 458.752 331.395C455.37 329.715 453.783 324.732 452.507 320.728C452.136 319.563 451.786 318.463 451.429 317.564L451.424 317.55C450.803 315.766 450.911 313.809 451.725 312.105C452.538 310.4 453.992 309.085 455.769 308.446L471.755 302.794C472.575 302.453 473.455 302.286 474.343 302.302C475.23 302.318 476.104 302.517 476.911 302.886C480.292 304.565 481.88 309.546 483.157 313.548C483.529 314.715 483.88 315.818 484.239 316.718C484.863 318.504 484.757 320.464 483.943 322.172C483.13 323.88 481.675 325.197 479.895 325.838L463.913 331.488Z" fill="white"/>
<path d="M365.955 347.394C365.669 347.506 365.359 347.54 365.057 347.489C364.754 347.439 364.471 347.308 364.238 347.109C363.965 346.87 363.758 346.565 363.637 346.223C363.516 345.881 363.485 345.514 363.547 345.156C363.605 344.849 363.746 344.564 363.956 344.332C364.166 344.1 364.436 343.931 364.737 343.843L370.821 341.692C371.11 341.572 371.426 341.535 371.735 341.583C372.043 341.632 372.333 341.765 372.571 341.967C372.844 342.206 373.051 342.511 373.171 342.853C373.292 343.195 373.323 343.562 373.261 343.919C373.202 344.226 373.06 344.511 372.85 344.742C372.64 344.974 372.37 345.143 372.071 345.231L365.986 347.382L365.955 347.394Z" fill="white"/>
<path d="M362.723 361.196C362.188 361.296 361.637 361.248 361.128 361.057C360.619 360.867 360.172 360.542 359.834 360.117C359.44 359.609 359.183 359.008 359.089 358.372C358.995 357.736 359.066 357.087 359.296 356.486C359.501 355.971 359.844 355.523 360.289 355.191C360.733 354.859 361.26 354.657 361.812 354.606L384.475 347.001C385.018 346.891 385.58 346.933 386.101 347.123C386.621 347.312 387.079 347.642 387.425 348.075C387.818 348.583 388.074 349.184 388.168 349.82C388.262 350.456 388.191 351.105 387.961 351.705C387.754 352.219 387.41 352.666 386.966 352.997C386.523 353.328 385.996 353.53 385.445 353.582L362.782 361.187L362.723 361.196Z" fill="white"/>
<path d="M482.648 281.088L342.043 330.801L342.28 331.472L482.886 281.76L482.648 281.088Z" fill="white"/>
<path d="M460.291 319.695C462.5 319.695 464.291 317.904 464.291 315.695C464.291 313.486 462.5 311.695 460.291 311.695C458.082 311.695 456.291 313.486 456.291 315.695C456.291 317.904 458.082 319.695 460.291 319.695Z" fill="#FF4000"/>
<path d="M473.291 320.695C474.948 320.695 476.291 319.352 476.291 317.695C476.291 316.038 474.948 314.695 473.291 314.695C471.634 314.695 470.291 316.038 470.291 317.695C470.291 319.352 471.634 320.695 473.291 320.695Z" fill="#FF4000"/>
<path d="M5.26701e-06 594.139C-0.000460802 594.296 0.0300089 594.451 0.0896507 594.595C0.149292 594.74 0.236938 594.871 0.347539 594.982C0.45814 595.092 0.589511 595.18 0.734106 595.24C0.8787 595.299 1.03366 595.33 1.19007 595.329H716.48C716.796 595.329 717.098 595.204 717.322 594.981C717.545 594.757 717.67 594.455 717.67 594.139C717.67 593.824 717.545 593.521 717.322 593.298C717.098 593.075 716.796 592.949 716.48 592.949H1.19001C1.03361 592.949 0.878661 592.979 0.734075 593.039C0.58949 593.099 0.458118 593.186 0.347524 593.297C0.236931 593.407 0.149291 593.539 0.0896507 593.683C0.0300107 593.828 -0.000455455 593.983 5.26701e-06 594.139V594.139Z" fill="#CCCCCC"/>
<path d="M248.655 568.352C248.08 568.379 247.511 568.228 247.025 567.92C246.538 567.612 246.158 567.162 245.936 566.631C245.714 566.1 245.661 565.513 245.783 564.951C245.906 564.388 246.198 563.877 246.621 563.486L246.813 562.722C246.788 562.66 246.762 562.599 246.737 562.538C246.157 561.17 245.187 560.003 243.946 559.185C242.706 558.366 241.252 557.933 239.766 557.938C238.28 557.944 236.829 558.388 235.595 559.216C234.361 560.043 233.399 561.217 232.83 562.59C230.555 568.068 227.66 573.555 226.947 579.348C226.632 581.908 226.765 584.503 227.338 587.018C221.996 575.365 219.222 562.699 219.204 549.879C219.203 546.662 219.382 543.448 219.739 540.251C220.035 537.63 220.445 535.028 220.97 532.445C223.833 518.427 229.981 505.288 238.908 494.107C243.229 491.75 246.723 488.124 248.92 483.72C249.716 482.137 250.278 480.446 250.59 478.702C250.102 478.766 248.752 471.343 249.12 470.887C248.44 469.857 247.225 469.344 246.483 468.339C242.793 463.337 237.71 464.21 235.057 471.007C229.388 473.868 229.333 478.613 232.811 483.176C235.024 486.08 235.328 490.008 237.27 493.116C237.07 493.372 236.862 493.62 236.663 493.876C233.011 498.571 229.829 503.613 227.16 508.929C227.809 502.973 227.035 496.949 224.901 491.351C222.738 486.133 218.685 481.739 215.115 477.229C210.827 471.812 202.035 474.176 201.279 481.043C201.272 481.11 201.265 481.176 201.258 481.243C201.788 481.542 202.307 481.859 202.815 482.195C203.453 482.622 203.947 483.231 204.233 483.943C204.519 484.655 204.583 485.436 204.417 486.185C204.251 486.935 203.863 487.616 203.303 488.141C202.743 488.665 202.038 489.008 201.28 489.125L201.202 489.137C201.391 491.048 201.725 492.942 202.201 494.802C197.621 512.513 207.508 518.963 221.625 519.253C221.937 519.412 222.24 519.572 222.552 519.724C219.871 527.321 218.19 535.233 217.55 543.263C217.188 548.001 217.209 552.76 217.614 557.494L217.59 557.326C216.567 552.062 213.759 547.312 209.64 543.879C203.521 538.853 194.877 537.002 188.277 532.962C187.576 532.512 186.76 532.271 185.926 532.269C185.093 532.267 184.276 532.504 183.572 532.951C182.869 533.398 182.307 534.037 181.955 534.792C181.602 535.547 181.473 536.388 181.583 537.214C181.592 537.273 181.601 537.332 181.61 537.391C182.594 537.791 183.552 538.253 184.478 538.773C185.008 539.072 185.528 539.39 186.035 539.725C186.673 540.152 187.168 540.761 187.454 541.473C187.739 542.185 187.804 542.966 187.638 543.715C187.472 544.464 187.083 545.146 186.523 545.671C185.964 546.195 185.258 546.538 184.5 546.655L184.422 546.667C184.366 546.675 184.318 546.683 184.263 546.691C185.944 550.705 188.303 554.4 191.238 557.614C194.101 573.074 206.4 574.541 219.556 570.039H219.564C221.007 576.311 223.098 582.417 225.804 588.257H248.097C248.177 588.009 248.249 587.753 248.321 587.505C246.257 587.635 244.185 587.512 242.152 587.138C243.806 585.108 245.46 583.063 247.114 581.033C247.151 580.995 247.186 580.955 247.218 580.913C248.057 579.875 248.904 578.844 249.743 577.805L249.743 577.804C249.788 574.62 249.423 571.443 248.656 568.353L248.655 568.352Z" fill="#F2F2F2"/>
<g clip-path="url(#clip1_338_394)">
<path d="M220.055 128.528H228.842C230.406 128.415 231.954 128.91 233.163 129.911C233.654 130.427 234.034 131.039 234.278 131.709C234.521 132.38 234.624 133.093 234.579 133.805C234.624 134.557 234.508 135.31 234.239 136.013C233.97 136.716 233.553 137.353 233.018 137.882C231.676 138.959 229.974 139.48 228.261 139.338H225.356V145.708H220.055V128.528ZM225.356 135.807H226.663C227.39 135.96 228.146 135.857 228.806 135.516C229.004 135.345 229.161 135.132 229.268 134.893C229.375 134.654 229.428 134.395 229.423 134.133C229.427 133.883 229.381 133.635 229.288 133.404C229.194 133.172 229.055 132.962 228.878 132.786C228.627 132.504 228.319 132.277 227.975 132.121C227.631 131.964 227.259 131.881 226.881 131.876H225.356V135.807Z" fill="#14499E"/>
<path d="M254.223 142.798H248.232L247.397 145.637H241.986L248.413 128.457H254.187L260.614 145.71H255.167L254.223 142.798ZM253.134 139.158L251.246 133.007L249.358 139.158H253.134Z" fill="#14499E"/>
<path d="M266.932 128.527H272.814L276.445 134.351L280.076 128.527H285.922L279.277 138.537V145.817H273.613V138.537L266.932 128.527Z" fill="#14499E"/>
<path d="M295.582 128.527H302.554L305.241 139.156L307.892 128.673H314.863V145.707H310.506V132.604L307.165 145.707H303.244L299.939 132.604V145.707H295.582V128.527Z" fill="#14499E"/>
<path d="M326.592 128.527H340.79V132.167H331.894V134.897H340.136V138.537H331.894V141.922H341.044V145.707H326.52L326.592 128.527Z" fill="#14499E"/>
<path d="M352.299 128.527H357.237L363.701 138.027V128.527H368.675V145.707H363.701L357.273 136.28V145.707H352.299V128.527Z" fill="#14499E"/>
<path d="M379.389 128.527H395.475V132.786H390.064V145.707H384.763V132.786H379.389V128.527Z" fill="#14499E"/>
<path d="M405.314 140.032L410.362 139.705C410.415 140.381 410.64 141.033 411.015 141.597C411.299 141.946 411.66 142.223 412.07 142.407C412.48 142.59 412.927 142.674 413.376 142.653C414.003 142.684 414.62 142.49 415.119 142.107C415.305 141.958 415.457 141.77 415.564 141.557C415.671 141.343 415.729 141.108 415.736 140.869C415.724 140.64 415.667 140.416 415.567 140.21C415.467 140.003 415.327 139.819 415.155 139.668C414.325 139.154 413.398 138.82 412.431 138.685C410.64 138.374 408.94 137.665 407.457 136.611C406.979 136.196 406.599 135.681 406.342 135.102C406.084 134.524 405.957 133.895 405.968 133.262C405.969 132.379 406.235 131.517 406.731 130.787C407.285 129.948 408.084 129.3 409.018 128.931C410.363 128.424 411.795 128.189 413.23 128.239C414.987 128.13 416.736 128.562 418.241 129.477C418.848 129.936 419.348 130.522 419.705 131.195C420.062 131.868 420.269 132.61 420.311 133.371L415.3 133.662C415.251 133.016 414.951 132.415 414.465 131.988C413.973 131.593 413.351 131.398 412.722 131.442C412.212 131.408 411.708 131.563 411.306 131.879C411.158 131.988 411.038 132.131 410.956 132.295C410.874 132.46 410.832 132.641 410.834 132.825C410.831 132.972 410.862 133.118 410.925 133.25C410.988 133.383 411.081 133.499 411.197 133.59C411.74 133.918 412.346 134.129 412.976 134.208C414.688 134.521 416.358 135.034 417.951 135.737C418.849 136.137 419.607 136.796 420.129 137.63C420.598 138.396 420.837 139.28 420.819 140.178C420.831 141.254 420.514 142.308 419.912 143.199C419.288 144.145 418.405 144.89 417.37 145.346C416.051 145.854 414.643 146.089 413.23 146.038C411.081 146.276 408.923 145.676 407.203 144.364C406.063 143.202 405.391 141.66 405.314 140.032V140.032Z" fill="#14499E"/>
<path d="M230.511 77.0248L223.394 71.4922H218.855V111.021H223.721V77.3159L230.511 82.3389V111.021H235.196V71.4922H230.511V77.0248Z" fill="#14499E"/>
<path d="M262.938 85.5056L260.941 80.9558H254.15V75.7508H261.376V71.4922H249.684V81.3562H246.416L248.05 85.2872H249.684V111.021H261.594V106.544H254.259V85.5056H262.938Z" fill="#14499E"/>
<path d="M274.703 76.1512H280.658V111.021H285.306V76.1512H290.716V71.4922H274.703V76.1512Z" fill="#14499E"/>
<path d="M390.028 71.4922H385.162V111.021H390.028V71.4922Z" fill="#14499E"/>
<path d="M412.65 71.4922C405.751 71.4922 405.388 76.6972 405.388 76.6972V80.9194H402.229L403.717 85.4692H405.206V110.948H409.999V85.4692H415.7V110.948H420.057V76.6972C420.057 76.6972 419.513 71.4922 412.65 71.4922ZM415.809 80.9194H409.999V77.5343C409.999 77.5343 409.672 75.6416 412.432 75.6416C415.192 75.6416 415.809 77.3159 415.809 77.3159V80.9194Z" fill="#14499E"/>
<path d="M320.091 69.9986C314.483 69.9501 309.085 72.1345 305.082 76.0721C301.078 80.0098 298.798 85.3789 298.74 91.0006C298.74 96.6961 300.997 102.158 305.015 106.186C309.033 110.213 314.482 112.476 320.164 112.476C325.846 112.476 331.295 110.213 335.313 106.186C339.33 102.158 341.588 96.6961 341.588 91.0006C341.559 88.2045 340.98 85.4417 339.883 82.8708C338.786 80.2999 337.193 77.9718 335.195 76.0201C333.197 74.0684 330.835 72.5317 328.243 71.4984C325.651 70.465 322.88 69.9553 320.091 69.9986V69.9986ZM320.091 107.198C317.945 107.222 315.816 106.822 313.824 106.021C311.833 105.22 310.018 104.034 308.484 102.529C306.949 101.025 305.726 99.2331 304.883 97.255C304.04 95.2768 303.593 93.1516 303.57 91.0006C303.57 86.6082 305.31 82.3958 308.409 79.2899C311.507 76.1841 315.709 74.4393 320.091 74.4393C324.473 74.4393 328.675 76.1841 331.774 79.2899C334.872 82.3958 336.613 86.6082 336.613 91.0006C336.556 95.3416 334.785 99.4831 331.688 102.519C328.592 105.554 324.422 107.237 320.091 107.198V107.198Z" fill="#14499E"/>
<path d="M358.037 71.4922H353.498V111.021H358.473V103.741C358.473 103.741 373.832 102.94 373.832 88.1991C373.832 73.4577 358.037 71.4922 358.037 71.4922ZM358.219 99.883V76.2604C361.282 76.4094 364.172 77.7305 366.293 79.9515C368.415 82.1726 369.605 85.1244 369.62 88.1991C369.62 97.8447 358.219 99.883 358.219 99.883V99.883Z" fill="#14499E"/>
</g>
</g>
<defs>
<clipPath id="clip0_338_394">
<rect width="717.67" height="595.329" fill="white"/>
</clipPath>
<clipPath id="clip1_338_394">
<rect width="202" height="76" fill="white" transform="translate(218.855 70)"/>
</clipPath>
</defs>
</svg>
