<svg width="729" height="658" viewBox="0 0 729 658" fill="none" xmlns="http://www.w3.org/2000/svg">
<g clip-path="url(#clip0_605_34)">
<path d="M298 93H0V261H298V93Z" fill="#14499E"/>
<path d="M320 246H20V76H320V246ZM22 244H318V78H22V244Z" fill="#FF4000"/>
<path d="M707 17H409V185H707V17Z" fill="#F2F2F2"/>
<path d="M729 170H429V0H729V170ZM431 168H727V2H431V168Z" fill="#14499E"/>
<path d="M512.113 658H131.113C130.848 658 130.594 657.895 130.406 657.707C130.219 657.52 130.113 657.265 130.113 657C130.113 656.735 130.219 656.48 130.406 656.293C130.594 656.105 130.848 656 131.113 656H512.113C512.378 656 512.633 656.105 512.82 656.293C513.008 656.48 513.113 656.735 513.113 657C513.113 657.265 513.008 657.52 512.82 657.707C512.633 657.895 512.378 658 512.113 658Z" fill="#CCCCCC"/>
<path d="M369.631 421.732C369.717 419.924 370.198 418.157 371.04 416.555C371.883 414.953 373.066 413.556 374.507 412.461C375.949 411.366 377.612 410.6 379.381 410.217C381.15 409.835 382.982 409.845 384.746 410.247L401.118 387.174L417.566 393.703L393.988 425.962C393.117 428.882 391.204 431.38 388.613 432.985C386.023 434.589 382.933 435.187 379.931 434.665C376.929 434.144 374.222 432.54 372.324 430.156C370.425 427.772 369.467 424.775 369.631 421.732L369.631 421.732Z" fill="#A0616A"/>
<path d="M387.592 401.89L416.701 352.933L404.841 321.307L420.993 278.233L421.589 278.489C421.98 278.656 431.157 282.752 432.518 297.418L451.08 355.755L401.54 420.023L387.592 401.89Z" fill="#3F3D56"/>
<path d="M229.498 221.908C231.294 222.133 233.018 222.749 234.55 223.713C236.082 224.677 237.384 225.965 238.365 227.486C239.345 229.008 239.98 230.726 240.224 232.519C240.469 234.312 240.317 236.137 239.78 237.866L261.518 255.973L253.736 271.866L223.398 245.865C220.554 244.77 218.21 242.67 216.811 239.963C215.412 237.256 215.055 234.13 215.807 231.177C216.559 228.224 218.368 225.649 220.891 223.941C223.414 222.233 226.477 221.509 229.498 221.908V221.908Z" fill="#A0616A"/>
<path d="M247.893 241.349L294.453 274.156L326.901 264.777L368.597 284.211L368.296 284.785C368.099 285.162 363.306 293.995 348.578 294.217L288.981 308.213L228.736 253.854L247.893 241.349Z" fill="#3F3D56"/>
<path d="M333.088 640.297H316.902L309.201 577.863L333.091 577.864L333.088 640.297Z" fill="#A0616A"/>
<path d="M300.572 635.672H336.557V655.327H285.686V650.559C285.686 646.61 287.254 642.824 290.046 640.032C292.838 637.24 296.624 635.672 300.572 635.672V635.672Z" fill="#2F2E41"/>
<path d="M397.783 640.297H381.596L373.896 577.863L397.785 577.864L397.783 640.297Z" fill="#A0616A"/>
<path d="M365.268 635.672H401.253V655.327H350.381V650.559C350.381 646.61 351.949 642.824 354.741 640.032C357.533 637.24 361.319 635.672 365.268 635.672V635.672Z" fill="#2F2E41"/>
<path d="M403.541 412.407L402.221 504.828L400.901 626.295L371.854 623.654L357.331 455.977L338.847 623.654H308.86L305.84 454.657L316.402 417.688L403.541 412.407Z" fill="#2F2E41"/>
<path d="M313.505 418.253L309.08 418.061L329.634 304.834L321.218 270.611C320.781 268.83 321.012 266.951 321.867 265.329C322.723 263.708 324.143 262.456 325.86 261.812L341.002 256.134L346.351 241.423L388.558 245.971L389.596 257.468C394.169 258.935 431.832 271.478 429.234 285.77C426.669 299.877 411.525 344.259 410.756 346.508L408.103 410.157L407.777 410.32C407.384 410.517 378.293 424.821 346.689 424.818C335.559 424.818 324.112 423.043 313.505 418.253Z" fill="#3F3D56"/>
<path d="M392.466 218.33C400.517 203.603 395.104 185.139 380.378 177.089C365.651 169.038 347.187 174.45 339.137 189.177C331.087 203.904 336.499 222.368 351.225 230.418C365.952 238.468 384.416 233.056 392.466 218.33Z" fill="#A0616A"/>
<path d="M390.416 233.171C384.624 239.34 373.869 236.028 373.114 227.6C373.055 226.946 373.059 226.287 373.127 225.634C373.517 221.901 375.673 218.512 375.157 214.57C375.04 213.589 374.674 212.654 374.095 211.854C369.48 205.674 358.647 214.618 354.291 209.023C351.621 205.593 354.76 200.192 352.71 196.358C350.006 191.298 341.994 193.794 336.969 191.023C331.379 187.939 331.714 179.362 335.393 174.145C339.881 167.783 347.749 164.388 355.52 163.899C363.29 163.41 371.007 165.51 378.261 168.337C386.503 171.55 394.677 175.989 399.749 183.236C405.917 192.05 406.511 203.899 403.426 214.205C401.55 220.474 395.145 228.133 390.416 233.171Z" fill="#2F2E41"/>
<path d="M110.228 198.5C108.564 198.5 107.284 198.052 106.388 197.156C105.492 196.26 105.044 194.98 105.044 193.316V158.564C105.044 156.9 105.492 155.62 106.388 154.724C107.284 153.828 108.564 153.38 110.228 153.38H122.708C130.431 153.38 136.383 155.343 140.564 159.268C144.788 163.151 146.9 168.697 146.9 175.908C146.9 179.535 146.345 182.756 145.236 185.572C144.169 188.345 142.612 190.692 140.564 192.612C138.516 194.532 135.999 196.004 133.012 197.028C130.025 198.009 126.591 198.5 122.708 198.5H110.228ZM114.964 190.372H122.132C124.564 190.372 126.676 190.073 128.468 189.476C130.26 188.879 131.753 187.983 132.948 186.788C134.143 185.593 135.039 184.1 135.636 182.308C136.233 180.473 136.532 178.34 136.532 175.908C136.532 171.044 135.316 167.439 132.884 165.092C130.495 162.703 126.911 161.508 122.132 161.508H114.964V190.372ZM154.824 199.076C153.629 199.076 152.648 198.799 151.88 198.244C151.155 197.689 150.685 196.943 150.472 196.004C150.301 195.065 150.493 194.02 151.048 192.868L167.432 156.964C168.115 155.513 168.925 154.468 169.864 153.828C170.803 153.145 171.891 152.804 173.128 152.804C174.365 152.804 175.453 153.145 176.392 153.828C177.331 154.468 178.12 155.513 178.76 156.964L195.272 192.868C195.827 194.02 196.019 195.087 195.848 196.068C195.72 197.007 195.293 197.753 194.568 198.308C193.843 198.82 192.904 199.076 191.752 199.076C190.301 199.076 189.171 198.735 188.36 198.052C187.592 197.369 186.909 196.303 186.312 194.852L182.472 185.956L186.44 188.708H159.752L163.72 185.956L159.944 194.852C159.304 196.345 158.621 197.433 157.896 198.116C157.213 198.756 156.189 199.076 154.824 199.076ZM173 163.94L164.808 183.46L163.08 180.964H183.112L181.384 183.46L173.128 163.94H173Z" fill="white"/>
<path d="M519.152 123.076C517.659 123.076 516.507 122.671 515.696 121.86C514.928 121.007 514.544 119.812 514.544 118.276V81.796C514.544 80.1747 514.928 78.9373 515.696 78.084C516.507 77.2307 517.573 76.804 518.896 76.804C520.048 76.804 520.923 77.0387 521.52 77.508C522.16 77.9347 522.885 78.66 523.696 79.684L546.16 108.292H544.432V81.54C544.432 80.0467 544.816 78.8947 545.584 78.084C546.395 77.2307 547.547 76.804 549.04 76.804C550.533 76.804 551.664 77.2307 552.432 78.084C553.243 78.8947 553.648 80.0467 553.648 81.54V118.468C553.648 119.876 553.285 121.007 552.56 121.86C551.835 122.671 550.853 123.076 549.616 123.076C548.421 123.076 547.461 122.841 546.736 122.372C546.053 121.903 545.307 121.156 544.496 120.132L522.096 91.524H523.76V118.276C523.76 119.812 523.376 121.007 522.608 121.86C521.84 122.671 520.688 123.076 519.152 123.076ZM582.06 123.204C578.86 123.204 576.022 122.799 573.548 121.988C571.116 121.135 569.068 119.897 567.404 118.276C565.74 116.655 564.481 114.628 563.628 112.196C562.817 109.721 562.411 106.863 562.411 103.62V81.86C562.411 80.196 562.838 78.9373 563.692 78.084C564.545 77.2307 565.782 76.804 567.404 76.804C568.982 76.804 570.198 77.2307 571.052 78.084C571.905 78.9373 572.332 80.196 572.332 81.86V103.684C572.332 107.353 573.164 110.127 574.828 112.004C576.492 113.839 578.902 114.756 582.06 114.756C585.217 114.756 587.606 113.839 589.228 112.004C590.892 110.127 591.724 107.353 591.724 103.684V81.86C591.724 80.196 592.15 78.9373 593.004 78.084C593.857 77.2307 595.073 76.804 596.652 76.804C598.23 76.804 599.425 77.2307 600.236 78.084C601.089 78.9373 601.516 80.196 601.516 81.86V103.62C601.516 107.929 600.769 111.556 599.276 114.5C597.825 117.401 595.649 119.577 592.748 121.028C589.889 122.479 586.326 123.204 582.06 123.204Z" fill="#383838"/>
</g>
<defs>
<clipPath id="clip0_605_34">
<rect width="729" height="658" fill="white"/>
</clipPath>
</defs>
</svg>
