<svg width="934" height="281" viewBox="0 0 934 281" fill="none" xmlns="http://www.w3.org/2000/svg">
<path d="M933.794 280.231L0.0516357 280.231L1.39471 34.2771L326.183 120.129L749.093 6.75702L933.794 29.7133L933.794 280.231Z" fill="url(#paint0_linear_300_55)"/>
<path d="M932.975 24.1871L933.099 33.2025L748.181 10.0219L321.48 114.854L0.746582 29.6009L0.771973 21.2084L323.023 109.718L748.648 0.698486L932.975 24.1871Z" fill="url(#paint1_linear_300_55)"/>
<path d="M933.034 24.2023L933.138 34.2903L748.117 10.0218L319.943 125.165L0.70752 34.568V28.5395L320.493 119.789L748.584 0.698296L933.034 24.2023Z" fill="url(#paint2_linear_300_55)"/>
<path d="M933.179 23.0744L932.993 28.2023L748.075 5.02175L319.902 120.165L0.666504 28.8135L0.940552 24.7031L321.102 113.977L749.509 0.232254L933.179 23.0744Z" fill="url(#paint3_linear_300_55)"/>
<defs>
<linearGradient id="paint0_linear_300_55" x1="520.34" y1="282.417" x2="533.323" y2="26.4996" gradientUnits="userSpaceOnUse">
<stop stop-color="#14499E"/>
<stop offset="1" stop-color="#2C80EE"/>
</linearGradient>
<linearGradient id="paint1_linear_300_55" x1="882.434" y1="71.7088" x2="20.5881" y2="41.5309" gradientUnits="userSpaceOnUse">
<stop offset="0.0104167" stop-color="#6FABF9"/>
<stop offset="0.9999" stop-color="#EFEFEF"/>
</linearGradient>
<linearGradient id="paint2_linear_300_55" x1="931.688" y1="76.8922" x2="20.5239" y2="41.5281" gradientUnits="userSpaceOnUse">
<stop stop-color="#2269CD"/>
<stop offset="0.510417" stop-color="#2C80EE"/>
<stop offset="1" stop-color="#6FABF9"/>
</linearGradient>
<linearGradient id="paint3_linear_300_55" x1="882.328" y1="66.7088" x2="20.4827" y2="36.5309" gradientUnits="userSpaceOnUse">
<stop offset="0.0104167" stop-color="#6FABF9"/>
<stop offset="0.447917" stop-color="#6FABF9"/>
<stop offset="1" stop-color="#94C0FC"/>
</linearGradient>
</defs>
</svg>
