<svg width="935" height="281" viewBox="0 0 935 281" fill="none" xmlns="http://www.w3.org/2000/svg">
<path d="M0.493652 0.640869H934.236L932.893 246.595L608.104 160.743L185.194 274.115L0.493652 251.158V0.640869Z" fill="url(#paint0_linear_300_55)"/>
<path d="M1.31227 256.685L1.18896 247.669L186.107 270.85L612.807 166.018L933.541 251.271L933.516 259.663L611.264 171.154L185.639 280.173L1.31227 256.685Z" fill="url(#paint1_linear_300_55)"/>
<path d="M1.25334 256.67L1.1499 246.582L186.171 270.85L614.345 155.707L933.58 246.304V252.332L613.795 161.083L185.704 280.174L1.25334 256.67Z" fill="url(#paint2_linear_300_55)"/>
<path d="M1.10889 257.797L1.29454 252.67L186.212 275.85L614.386 160.707L933.621 252.058L933.347 256.169L613.186 166.895L184.779 280.64L1.10889 257.797Z" fill="url(#paint3_linear_300_55)"/>
<defs>
<linearGradient id="paint0_linear_300_55" x1="413.948" y1="-1.54562" x2="400.964" y2="254.372" gradientUnits="userSpaceOnUse">
<stop stop-color="#14499E"/>
<stop offset="1" stop-color="#2C80EE"/>
</linearGradient>
<linearGradient id="paint1_linear_300_55" x1="51.8536" y1="209.163" x2="913.7" y2="239.341" gradientUnits="userSpaceOnUse">
<stop offset="0.0104167" stop-color="#6FABF9"/>
<stop offset="0.9999" stop-color="#EFEFEF"/>
</linearGradient>
<linearGradient id="paint2_linear_300_55" x1="2.59997" y1="203.98" x2="913.764" y2="239.344" gradientUnits="userSpaceOnUse">
<stop stop-color="#2269CD"/>
<stop offset="0.510417" stop-color="#2C80EE"/>
<stop offset="1" stop-color="#6FABF9"/>
</linearGradient>
<linearGradient id="paint3_linear_300_55" x1="51.9591" y1="214.163" x2="913.805" y2="244.341" gradientUnits="userSpaceOnUse">
<stop offset="0.0104167" stop-color="#6FABF9"/>
<stop offset="0.447917" stop-color="#6FABF9"/>
<stop offset="1" stop-color="#94C0FC"/>
</linearGradient>
</defs>
</svg>
