<svg width="425" height="157" viewBox="0 0 425 157" fill="none" xmlns="http://www.w3.org/2000/svg">
<path d="M35.0898 85H25.0798V24.72L10.6698 14.6V85H0.549805V2.5H9.56981L25.0798 13.39V2.5H35.0898V85Z" fill="white"/>
<path d="M93.6797 31.76H75.7497V75.32H91.0396V85H65.6297V31.76H62.4397L59.1396 22.3H65.6297V2.5H91.0396V12.18H75.7497V22.3H90.2696L93.6797 31.76Z" fill="white"/>
<path d="M151.94 12.18H139.95V85H129.94V12.18H117.95V2.5H151.94V12.18Z" fill="white"/>
<path d="M257.17 43.5298C257.17 55.4831 252.807 65.6581 244.08 74.0548C235.353 82.4515 224.793 86.6498 212.4 86.6498C200.08 86.6498 189.538 82.4515 180.775 74.0548C172.012 65.6581 167.63 55.4831 167.63 43.5298C167.63 31.5765 172.012 21.3831 180.775 12.9498C189.538 4.51647 200.08 0.299805 212.4 0.299805C224.793 0.299805 235.353 4.51647 244.08 12.9498C252.807 21.3831 257.17 31.5765 257.17 43.5298ZM247.16 43.5298C247.16 33.9231 243.457 25.8198 236.05 19.2198C229.157 13.1331 221.273 10.0898 212.4 10.0898C202.427 10.0898 194.03 13.6098 187.21 20.6498C180.903 27.3231 177.75 34.9498 177.75 43.5298C177.75 53.0631 181.417 61.1298 188.75 67.7298C195.643 73.8898 203.527 76.9698 212.4 76.9698C222.373 76.9698 230.77 73.4131 237.59 66.2998C243.97 59.6265 247.16 52.0365 247.16 43.5298Z" fill="white"/>
<path d="M326.1 36.71C326.1 45.6567 322.891 53.4117 316.475 59.975C310.058 66.5383 302.193 70.0767 292.88 70.59V85H282.76V2.5H291.23C300.836 2.64667 309.05 6.05667 315.87 12.73C322.69 19.4033 326.1 27.3967 326.1 36.71ZM315.98 36.71C315.98 30.11 313.725 24.5183 309.215 19.935C304.705 15.3517 299.26 12.8033 292.88 12.29V61.02C299.48 60.4333 304.98 57.775 309.38 53.045C313.78 48.315 315.98 42.87 315.98 36.71Z" fill="white"/>
<path d="M361.15 85H351.03V2.5H361.15V85Z" fill="white"/>
<path d="M424.58 84.9995H414.57V31.7595H403.13V84.9995H393.01V31.7595H389.71L386.41 22.2995H393.01V17.0195C393.01 12.8395 394.55 9.24616 397.63 6.23949C400.71 3.23282 404.413 1.72949 408.74 1.72949C413.066 1.72949 416.788 3.23282 419.905 6.23949C423.021 9.24616 424.58 12.8395 424.58 17.0195V84.9995ZM414.57 22.2995V17.0195C414.57 13.2061 412.626 11.2995 408.74 11.2995C405 11.2995 403.13 13.2061 403.13 17.0195V22.2995H414.57Z" fill="white"/>
<path d="M8.81232 143.935V157.617H0.5V121.916H14.2312C18.3669 121.916 21.6445 122.872 24.0637 124.785C26.4831 126.698 27.6927 129.313 27.6927 132.631C27.6927 134.478 27.2064 136.064 26.2338 137.388C25.2611 138.713 23.8267 139.791 21.9305 140.625C24.121 141.247 25.6944 142.28 26.6506 143.726C27.6068 145.174 28.085 146.975 28.085 149.134V151.389C28.085 152.321 28.224 153.384 28.5019 154.577C28.7798 155.77 29.262 156.62 29.9485 157.127V157.617H21.4156C20.7617 157.11 20.3326 156.211 20.1283 154.92C19.9239 153.629 19.8218 152.435 19.8218 151.34V149.183C19.8218 147.482 19.3722 146.183 18.4732 145.284C17.5741 144.385 16.2582 143.935 14.5254 143.935H8.81232ZM8.81232 137.56H14.2802C15.9476 137.56 17.2227 137.18 18.1054 136.42C18.9881 135.659 19.4295 134.569 19.4295 133.147C19.4295 131.691 18.9758 130.518 18.0686 129.627C17.1614 128.736 15.8823 128.292 14.2312 128.292H8.81232V137.56Z" fill="white"/>
<path d="M109.195 142.341H95.1934V151.242H111.695V157.617H86.8811V121.916H111.745V128.292H95.1934V135.966H109.195V142.341Z" fill="white"/>
<path d="M194.079 128.292H184.664V157.617H176.352V128.292H167.009V121.916H194.079V128.292Z" fill="white"/>
<path d="M266.974 150.678H255.719L253.709 157.617H245.373L256.896 121.916H265.798L277.347 157.617H269.01L266.974 150.678ZM257.558 144.303H265.135L261.408 131.528H261.261L257.558 144.303Z" fill="white"/>
<path d="M341.929 157.617H333.667V121.916H341.929V157.617Z" fill="white"/>
<path d="M409.626 151.242H425V157.617H401.313V121.916H409.626V151.242Z" fill="white"/>
</svg>
