<svg width="582" height="201" viewBox="0 0 582 201" fill="none" xmlns="http://www.w3.org/2000/svg">
<path d="M42.0912 173.004V193.375C41.2901 194.34 40.053 195.387 38.38 196.517C36.7069 197.623 34.5509 198.576 31.9117 199.376C29.2725 200.177 26.0797 200.577 22.333 200.577C19.0105 200.577 15.9825 200.035 13.2492 198.953C10.5157 197.846 8.15934 196.234 6.18 194.116C4.2242 191.998 2.71612 189.409 1.65574 186.349C0.595372 183.266 0.0651855 179.747 0.0651855 175.794V172.58C0.0651855 168.627 0.571808 165.108 1.58505 162.025C2.62186 158.941 4.0946 156.341 6.00327 154.223C7.91192 152.104 10.1858 150.492 12.825 149.386C15.4642 148.28 18.3978 147.727 21.6261 147.727C26.1032 147.727 29.7792 148.456 32.6539 149.916C35.5288 151.351 37.7202 153.352 39.2283 155.917C40.7599 158.459 41.7024 161.378 42.0559 164.673H31.7703C31.5111 162.931 31.0162 161.413 30.2858 160.118C29.5553 158.824 28.5068 157.812 27.14 157.082C25.7969 156.353 24.0532 155.988 21.9089 155.988C20.1416 155.988 18.5628 156.353 17.1725 157.082C15.8058 157.788 14.6512 158.836 13.7086 160.225C12.7661 161.613 12.0474 163.331 11.5525 165.378C11.0577 167.426 10.8103 169.803 10.8103 172.51V175.794C10.8103 178.477 11.0695 180.853 11.5879 182.925C12.1063 184.972 12.8721 186.702 13.8854 188.115C14.9222 189.503 16.1946 190.55 17.7027 191.256C19.2108 191.962 20.9663 192.315 22.9692 192.315C24.6422 192.315 26.0325 192.174 27.14 191.892C28.2711 191.61 29.1783 191.268 29.8616 190.868C30.5686 190.444 31.1106 190.044 31.4875 189.668V180.56H21.8028V173.004H42.0912Z" fill="#14499E"/>
<path d="M137.51 148.468H156.703C160.638 148.468 164.02 149.056 166.847 150.233C169.699 151.41 171.89 153.152 173.422 155.458C174.953 157.764 175.719 160.6 175.719 163.966C175.719 166.72 175.248 169.085 174.305 171.062C173.387 173.016 172.079 174.651 170.382 175.969C168.709 177.264 166.742 178.3 164.479 179.076L161.121 180.841H144.438L144.368 172.58H156.774C158.636 172.58 160.179 172.251 161.404 171.591C162.63 170.933 163.548 170.015 164.162 168.838C164.797 167.661 165.116 166.296 165.116 164.743C165.116 163.095 164.809 161.671 164.196 160.471C163.584 159.27 162.653 158.353 161.404 157.717C160.156 157.082 158.588 156.764 156.703 156.764H148.115V199.87H137.51V148.468ZM166.282 199.87L154.547 176.958L165.752 176.887L177.628 199.376V199.87H166.282Z" fill="#14499E"/>
<path d="M313.023 172.968V175.405C313.023 179.311 312.494 182.819 311.433 185.925C310.373 189.032 308.876 191.679 306.944 193.869C305.011 196.034 302.702 197.693 300.016 198.846C297.354 200 294.396 200.576 291.144 200.576C287.916 200.576 284.959 200 282.273 198.846C279.61 197.693 277.301 196.034 275.345 193.869C273.389 191.679 271.869 189.032 270.785 185.925C269.725 182.819 269.195 179.311 269.195 175.405V172.968C269.195 169.038 269.725 165.531 270.785 162.448C271.845 159.342 273.342 156.694 275.274 154.505C277.23 152.316 279.54 150.645 282.202 149.492C284.888 148.339 287.845 147.762 291.074 147.762C294.326 147.762 297.283 148.339 299.946 149.492C302.632 150.645 304.941 152.316 306.873 154.505C308.829 156.694 310.337 159.342 311.398 162.448C312.481 165.531 313.023 169.038 313.023 172.968ZM302.314 175.405V172.898C302.314 170.168 302.066 167.767 301.572 165.696C301.076 163.625 300.346 161.883 299.38 160.471C298.414 159.059 297.236 158 295.846 157.294C294.455 156.564 292.865 156.199 291.074 156.199C289.283 156.199 287.693 156.564 286.302 157.294C284.935 158 283.769 159.059 282.803 160.471C281.86 161.883 281.142 163.625 280.647 165.696C280.152 167.767 279.904 170.168 279.904 172.898V175.405C279.904 178.111 280.152 180.512 280.647 182.607C281.142 184.678 281.872 186.431 282.838 187.867C283.804 189.279 284.982 190.35 286.373 191.079C287.763 191.809 289.354 192.174 291.144 192.174C292.935 192.174 294.526 191.809 295.916 191.079C297.306 190.35 298.473 189.279 299.415 187.867C300.358 186.431 301.076 184.678 301.572 182.607C302.066 180.512 302.314 178.111 302.314 175.405Z" fill="#14499E"/>
<path d="M435.942 148.468H446.51V182.43C446.51 186.384 445.661 189.714 443.965 192.421C442.292 195.127 439.971 197.163 437.002 198.528C434.057 199.893 430.663 200.576 426.822 200.576C422.981 200.576 419.565 199.893 416.572 198.528C413.603 197.163 411.271 195.127 409.574 192.421C407.901 189.714 407.064 186.384 407.064 182.43V148.468H417.668V182.43C417.668 184.737 418.033 186.619 418.763 188.079C419.494 189.538 420.543 190.608 421.909 191.291C423.3 191.973 424.937 192.315 426.822 192.315C428.754 192.315 430.393 191.973 431.735 191.291C433.102 190.608 434.139 189.538 434.846 188.079C435.576 186.619 435.942 184.737 435.942 182.43V148.468Z" fill="#14499E"/>
<path d="M562.147 181.547H549.034V173.286H562.147C564.174 173.286 565.823 172.957 567.095 172.298C568.368 171.615 569.299 170.674 569.888 169.473C570.477 168.273 570.772 166.92 570.772 165.413C570.772 163.883 570.477 162.46 569.888 161.142C569.299 159.824 568.368 158.764 567.095 157.965C565.823 157.164 564.174 156.764 562.147 156.764H552.71V199.87H542.106V148.468H562.147C566.177 148.468 569.629 149.197 572.503 150.656C575.402 152.092 577.617 154.081 579.149 156.623C580.68 159.165 581.446 162.071 581.446 165.343C581.446 168.661 580.68 171.533 579.149 173.957C577.617 176.381 575.402 178.252 572.503 179.57C569.629 180.888 566.177 181.547 562.147 181.547Z" fill="#14499E"/>
<path d="M0.849365 4.5918V116.948H14.7932V21.1892L34.0835 35.4052V116.948H47.4492V4.5918H34.0835V20.3231L13.8539 4.5918H0.849365Z" fill="#14499E"/>
<path d="M79.4553 32.663L84.1511 43.8481H88.8477V116.948H122.732V104.248H101.852V44.4975H126.633L120.926 31.5084H101.563V16.715H122.082V4.5918H88.8477V32.663H79.4553Z" fill="#14499E"/>
<path d="M160.228 17.8696H177.134V116.948H190.428V17.8696H205.889V4.5918H160.228V17.8696Z" fill="#14499E"/>
<path d="M489.21 4.5918H475.302V116.941H489.21V4.5918Z" fill="#14499E"/>
<path d="M553.62 4.5918C533.968 4.5918 532.45 19.3923 532.45 19.3923V31.7753H523.983L528.216 44.7647H532.45V116.948H546.055V44.7647H562.383V116.948H574.781V19.3995C574.781 19.3923 573.271 4.5918 553.62 4.5918ZM562.686 31.1693H546.055V21.8098C546.055 21.8098 545.144 16.3759 553.012 16.3759C560.873 16.3759 562.686 21.2109 562.686 21.2109V31.1693Z" fill="#14499E"/>
<path d="M289.625 0.40625C255.885 0.40625 228.531 27.1134 228.531 60.0555C228.531 92.9975 255.885 119.704 289.625 119.704C323.364 119.704 350.717 92.9975 350.717 60.0555C350.717 27.1134 323.364 0.40625 289.625 0.40625ZM289.625 106.117C263.571 106.117 242.454 85.4925 242.454 60.0555C242.454 34.6183 263.571 13.9944 289.625 13.9944C315.677 13.9944 336.795 34.6183 336.795 60.0555C336.795 85.4925 315.677 106.117 289.625 106.117Z" fill="#14499E"/>
<path d="M397.852 4.5918H384.848V116.941H399.059V96.7074C399.059 96.7074 442.906 93.9867 442.906 52.0097C442.906 10.033 397.852 4.5918 397.852 4.5918ZM398.344 85.2764V18.2017C403.849 18.2017 430.869 23.9675 430.869 51.7355C430.869 79.5183 398.344 85.2764 398.344 85.2764Z" fill="#14499E"/>
</svg>
