<svg width="705" height="561" viewBox="0 0 705 561" fill="none" xmlns="http://www.w3.org/2000/svg">
<g clip-path="url(#clip0_5_87)">
<path d="M489.181 136.499H486.166V53.8974C486.166 47.6192 484.93 41.4025 482.527 35.6021C480.124 29.8018 476.603 24.5315 472.164 20.0921C467.724 15.6528 462.454 12.1313 456.653 9.72871C450.853 7.32615 444.636 6.08958 438.358 6.0896H263.355C257.077 6.08959 250.86 7.32616 245.059 9.72873C239.259 12.1313 233.989 15.6528 229.549 20.0922C225.11 24.5315 221.589 29.8018 219.186 35.6022C216.783 41.4025 215.547 47.6192 215.547 53.8974V507.058C215.547 513.337 216.783 519.553 219.186 525.354C221.589 531.154 225.11 536.424 229.549 540.864C233.989 545.303 239.259 548.825 245.059 551.227C250.86 553.63 257.077 554.866 263.355 554.866H438.358C444.636 554.866 450.853 553.63 456.653 551.227C462.454 548.825 467.724 545.303 472.164 540.864C476.603 536.424 480.124 531.154 482.527 525.354C484.93 519.553 486.166 513.337 486.166 507.058V195.297H489.181V136.499Z" fill="#B1B1B1"/>
<path d="M440.289 18.5276H417.445C418.496 21.1031 418.897 23.8975 418.613 26.6645C418.329 29.4316 417.369 32.0863 415.818 34.395C414.266 36.7036 412.171 38.5953 409.716 39.9033C407.261 41.2114 404.522 41.8956 401.741 41.8958H301.483C298.702 41.8956 295.963 41.2114 293.508 39.9033C291.053 38.5953 288.958 36.7036 287.406 34.395C285.855 32.0864 284.895 29.4316 284.611 26.6645C284.327 23.8975 284.728 21.1031 285.779 18.5276H264.443C259.754 18.5276 255.112 19.451 250.78 21.2452C246.448 23.0395 242.513 25.6693 239.197 28.9845C235.882 32.2998 233.252 36.2356 231.458 40.5672C229.664 44.8988 228.74 49.5414 228.74 54.2299V506.726C228.74 511.415 229.664 516.057 231.458 520.389C233.252 524.72 235.882 528.656 239.197 531.971C242.512 535.287 246.448 537.917 250.78 539.711C255.112 541.505 259.754 542.428 264.443 542.428H440.289C444.977 542.428 449.62 541.505 453.952 539.711C458.283 537.917 462.219 535.287 465.534 531.971C468.85 528.656 471.479 524.72 473.274 520.389C475.068 516.057 475.991 511.415 475.991 506.726V54.2298C475.991 44.761 472.23 35.68 465.534 28.9845C458.839 22.289 449.758 18.5276 440.289 18.5276V18.5276Z" fill="white"/>
<path d="M445.112 89.2107H259.617V248.314H445.112V89.2107Z" fill="#F5F2F2"/>
<path d="M314.663 281.492C322.159 281.492 328.235 275.415 328.235 267.919C328.235 260.423 322.159 254.346 314.663 254.346C307.167 254.346 301.09 260.423 301.09 267.919C301.09 275.415 307.167 281.492 314.663 281.492Z" fill="#FF4000" fill-opacity="0.45"/>
<path d="M321.448 266.788H315.792V261.133H313.53V266.788H307.875V269.05H313.53V274.706H315.792V269.05H321.448V266.788Z" fill="white"/>
<path d="M386.295 281.492C393.791 281.492 399.868 275.415 399.868 267.919C399.868 260.423 393.791 254.346 386.295 254.346C378.799 254.346 372.723 260.423 372.723 267.919C372.723 275.415 378.799 281.492 386.295 281.492Z" fill="#E6E6E6"/>
<path d="M393.082 269.05V266.788H379.509V269.05H393.082Z" fill="white"/>
<path d="M359.282 109.053H344.623C344.108 109.053 343.613 109.258 343.249 109.622C342.884 109.987 342.68 110.481 342.68 110.997V117.431C342.68 117.946 342.884 118.441 343.249 118.805C343.613 119.17 344.108 119.374 344.623 119.374H347.052V129.015H356.853V119.374H359.282C359.797 119.374 360.292 119.17 360.656 118.805C361.021 118.441 361.225 117.946 361.225 117.431V110.997C361.225 110.481 361.021 109.987 360.656 109.622C360.292 109.258 359.797 109.053 359.282 109.053Z" fill="#FF4000" fill-opacity="0.45"/>
<path d="M373.966 167.939C364.989 154.802 360.399 139.161 360.855 123.257C360.863 122.89 360.744 122.531 360.518 122.242C360.292 121.953 359.973 121.751 359.615 121.671V118.891H344.133V121.632H343.92C343.711 121.632 343.505 121.674 343.312 121.754C343.119 121.834 342.944 121.951 342.797 122.099C342.65 122.247 342.533 122.422 342.453 122.615C342.374 122.808 342.333 123.014 342.333 123.223C342.333 123.261 342.335 123.3 342.338 123.338C343.557 140.34 339.439 155.587 329.982 169.079C329.438 169.854 329.16 170.785 329.19 171.732L330.883 224.096C330.923 225.264 331.413 226.372 332.251 227.187C333.088 228.002 334.208 228.462 335.377 228.472H370.394C371.576 228.462 372.707 227.991 373.547 227.159C374.387 226.328 374.869 225.201 374.891 224.019L375.543 173.178C375.563 171.312 375.012 169.484 373.966 167.939V167.939Z" fill="#2F2E41" fill-opacity="0.5"/>
<path opacity="0.2" d="M356.226 111.15C356.226 112.262 355.784 113.328 354.998 114.115C354.211 114.901 353.145 115.343 352.033 115.343C350.921 115.343 349.854 114.901 349.068 114.115C348.282 113.328 347.84 112.262 347.84 111.15" fill="black"/>
<path d="M368.419 185.332H364.179C363.774 182.706 362.443 180.31 360.425 178.58C358.408 176.85 355.838 175.898 353.18 175.898C350.522 175.898 347.952 176.85 345.934 178.58C343.917 180.31 342.585 182.706 342.18 185.332H337.94C337.489 185.332 337.043 185.43 336.633 185.618C336.223 185.807 335.859 186.082 335.565 186.424C335.271 186.767 335.055 187.168 334.931 187.602C334.807 188.036 334.778 188.492 334.847 188.938L339.453 218.876H365.901L371.495 189.038C371.58 188.586 371.564 188.121 371.449 187.676C371.333 187.231 371.121 186.817 370.827 186.463C370.534 186.109 370.166 185.825 369.75 185.629C369.333 185.434 368.879 185.332 368.419 185.332V185.332Z" fill="#FFBEA9"/>
<path d="M445.112 313.162H259.617V472.265H445.112V313.162Z" fill="#F5F2F2"/>
<path d="M314.663 505.443C322.159 505.443 328.235 499.366 328.235 491.87C328.235 484.374 322.159 478.297 314.663 478.297C307.167 478.297 301.09 484.374 301.09 491.87C301.09 499.366 307.167 505.443 314.663 505.443Z" fill="#FF4000" fill-opacity="0.45"/>
<path d="M321.448 490.739H315.792V485.084H313.53V490.739H307.875V493.002H313.53V498.657H315.792V493.002H321.448V490.739Z" fill="white"/>
<path d="M386.295 505.443C393.791 505.443 399.868 499.366 399.868 491.87C399.868 484.374 393.791 478.297 386.295 478.297C378.799 478.297 372.723 484.374 372.723 491.87C372.723 499.366 378.799 505.443 386.295 505.443Z" fill="#E6E6E6"/>
<path d="M393.082 493.001V490.739H379.509V493.001H393.082Z" fill="white"/>
<path d="M388.879 426.191L388.982 426.191C392.474 426.221 395.895 425.197 398.796 423.253C401.698 421.309 403.947 418.536 405.249 415.295C409.352 404.92 410.313 393.568 408.011 382.651C405.71 371.734 400.248 361.735 392.306 353.899C384.364 346.064 374.292 340.737 363.345 338.584C352.398 336.43 341.06 337.544 330.741 341.786C320.422 346.029 311.58 353.214 305.314 362.445C299.049 371.676 295.637 382.547 295.504 393.703C295.371 404.859 298.523 415.808 304.566 425.186C310.61 434.564 319.279 441.957 329.493 446.445C332.668 447.851 336.193 448.264 339.607 447.631C343.021 446.998 346.164 445.348 348.623 442.898C353.899 437.594 360.172 433.388 367.081 430.52C373.991 427.653 381.399 426.182 388.879 426.191V426.191Z" fill="white"/>
<path d="M359.667 408.976C370.039 408.976 378.447 400.568 378.447 390.196C378.447 379.824 370.039 371.416 359.667 371.416C349.295 371.416 340.887 379.824 340.887 390.196C340.887 400.568 349.295 408.976 359.667 408.976Z" fill="#F9A825"/>
<path d="M164.703 191.736H159.703V246.736H164.703V191.736Z" fill="#F2F2F2"/>
<path d="M270.437 559.992H73.4375L73.6575 537.104L73.6775 535.114L75.4375 355.992H269.437L269.687 407.738L269.697 409.728L270.437 559.992Z" fill="#E6E6E6"/>
<path d="M508.369 170.467L540.245 116.428C541.589 114.135 541.977 111.405 541.326 108.828C540.674 106.251 539.036 104.033 536.764 102.653V102.653C535.589 101.939 534.28 101.472 532.919 101.281C531.557 101.089 530.171 101.177 528.844 101.538C527.517 101.9 526.278 102.528 525.202 103.384C524.126 104.241 523.236 105.307 522.585 106.518L491.194 163.666L470.656 197.588C468.861 197.326 467.028 197.623 465.407 198.44C463.787 199.256 462.456 200.551 461.598 202.15C460.739 203.748 460.393 205.572 460.607 207.374C460.82 209.176 461.584 210.868 462.793 212.221C464.002 213.574 465.599 214.522 467.366 214.936C469.132 215.35 470.984 215.21 472.668 214.536C474.353 213.861 475.789 212.684 476.781 211.165C477.773 209.645 478.274 207.857 478.214 206.044L508.369 170.467Z" fill="#A0616A"/>
<path d="M538.716 130.369C539.352 130.218 539.922 129.863 540.337 129.358C540.752 128.853 540.99 128.226 541.014 127.572C541.059 126.766 541.355 125.995 541.859 125.365C541.958 125.244 542.065 125.13 542.179 125.024C542.881 124.398 543.421 123.612 543.754 122.732C544.088 121.853 544.203 120.906 544.092 119.972C543.682 116.904 544.79 113.346 546.149 110.408C547.636 107.193 549.32 104.011 549.994 100.533C550.966 95.5169 549.489 89.5725 543.307 88.0846C540.667 87.4926 537.905 87.8284 535.484 89.0355C530.389 91.4919 527.277 96.3789 524.345 101.083C524.345 101.083 517.339 108.373 512.454 111.916C513.729 112.411 513.573 114.444 512.515 115.311C511.456 116.178 509.987 116.261 508.636 116.478C506.933 116.751 504.998 117.529 505.102 119.648C505.141 120.155 505.284 120.647 505.523 121.095C505.761 121.543 506.09 121.937 506.488 122.252C513.884 128.365 522.463 132.882 531.688 135.52C533.737 136.104 536.034 136.571 537.919 135.576C539.803 134.58 540.535 131.478 538.716 130.369Z" fill="#FF4000"/>
<path d="M587.328 224.152L522.328 223.152L520.328 208.152L526.328 174.152H577.328L587.328 224.152Z" fill="#A0616A"/>
<path d="M500.068 538.978H489.03L483.777 496.405H500.068V538.978Z" fill="#A0616A"/>
<path d="M505.895 558.103H497.979L496.566 550.629L492.948 558.103H471.954C470.948 558.103 469.968 557.781 469.157 557.185C468.346 556.588 467.748 555.748 467.448 554.788C467.149 553.827 467.164 552.796 467.492 551.844C467.82 550.893 468.444 550.072 469.272 549.5L486.037 537.921V530.366L503.671 531.419L505.895 558.103Z" fill="#2F2E41"/>
<path d="M649.349 503.147L640.295 509.46L611.635 477.542L624.998 468.225L649.349 503.147Z" fill="#A0616A"/>
<path d="M665.064 515.502L658.571 520.029L653.138 514.707L654.444 522.907L637.223 534.915C636.398 535.491 635.41 535.787 634.404 535.762C633.398 535.736 632.427 535.39 631.632 534.773C630.836 534.156 630.259 533.301 629.984 532.333C629.709 531.365 629.751 530.335 630.103 529.392L637.233 510.305L632.911 504.108L647.978 494.885L665.064 515.502Z" fill="#2F2E41"/>
<path d="M703.541 560.649L1.18379 560.956C0.869202 560.954 0.56812 560.828 0.346313 560.605C0.124507 560.382 0 560.08 0 559.765C0 559.451 0.124507 559.149 0.346313 558.926C0.56812 558.703 0.869202 558.576 1.18379 558.575L703.541 558.267C703.856 558.269 704.157 558.395 704.379 558.618C704.601 558.841 704.726 559.143 704.726 559.458C704.726 559.773 704.601 560.075 704.379 560.298C704.157 560.521 703.856 560.647 703.541 560.649V560.649Z" fill="#CACACA"/>
<path d="M278.432 335.384H62.9336V359.152H278.432V335.384Z" fill="#E6E6E6"/>
<path d="M204.825 306.749L204.095 304.189H204.259C204.711 304.188 205.144 304.008 205.464 303.688C205.783 303.368 205.962 302.934 205.962 302.482C205.962 302.03 205.783 301.597 205.464 301.277C205.144 300.957 204.711 300.776 204.259 300.775C196.544 298.943 188.506 298.943 180.79 300.775C180.34 300.775 179.907 300.953 179.587 301.271C179.267 301.589 179.086 302.02 179.084 302.471C179.081 302.922 179.257 303.355 179.573 303.677C179.889 303.998 180.319 304.182 180.77 304.187L180.076 306.749C174.691 314.236 177.326 326.671 180.076 339.179H204.825C207.936 325.546 210.292 312.599 204.825 306.749Z" fill="#E6E6E6"/>
<path d="M192.527 326.804C196.297 326.804 199.354 323.748 199.354 319.977C199.354 316.207 196.297 313.15 192.527 313.15C188.756 313.15 185.699 316.207 185.699 319.977C185.699 323.748 188.756 326.804 192.527 326.804Z" fill="white"/>
<path d="M223.497 270.218L222.767 267.658H222.931C223.384 267.658 223.818 267.478 224.138 267.158C224.458 266.838 224.638 266.404 224.638 265.951C224.638 265.498 224.458 265.064 224.138 264.744C223.818 264.424 223.384 264.244 222.931 264.244C215.216 262.412 207.178 262.412 199.462 264.244C199.011 264.244 198.579 264.422 198.259 264.74C197.939 265.058 197.758 265.489 197.756 265.94C197.753 266.391 197.929 266.824 198.245 267.146C198.561 267.467 198.991 267.651 199.442 267.656L198.748 270.218C193.363 277.705 195.998 290.14 198.748 302.648H223.497C226.608 289.015 228.964 276.068 223.497 270.218Z" fill="#E6E6E6"/>
<path d="M211.196 290.273C214.967 290.273 218.024 287.217 218.024 283.446C218.024 279.675 214.967 276.619 211.196 276.619C207.426 276.619 204.369 279.675 204.369 283.446C204.369 287.217 207.426 290.273 211.196 290.273Z" fill="white"/>
<path d="M187.497 270.218L186.767 267.658H186.931C187.384 267.658 187.818 267.478 188.138 267.158C188.458 266.838 188.638 266.404 188.638 265.951C188.638 265.498 188.458 265.064 188.138 264.744C187.818 264.424 187.384 264.244 186.931 264.244C179.216 262.412 171.178 262.412 163.462 264.244C163.011 264.244 162.579 264.422 162.259 264.74C161.939 265.058 161.758 265.489 161.756 265.94C161.753 266.391 161.929 266.824 162.245 267.146C162.561 267.467 162.991 267.651 163.442 267.656L162.748 270.218C157.363 277.705 159.998 290.14 162.748 302.648H187.497C190.608 289.015 192.964 276.068 187.497 270.218Z" fill="#E6E6E6"/>
<path d="M175.196 290.273C178.967 290.273 182.024 287.217 182.024 283.446C182.024 279.675 178.967 276.619 175.196 276.619C171.426 276.619 168.369 279.675 168.369 283.446C168.369 287.217 171.426 290.273 175.196 290.273Z" fill="white"/>
<path d="M171.497 235.218L170.767 232.658H170.931C171.384 232.658 171.818 232.478 172.138 232.158C172.458 231.838 172.638 231.404 172.638 230.951C172.638 230.498 172.458 230.064 172.138 229.744C171.818 229.424 171.384 229.244 170.931 229.244C163.216 227.412 155.178 227.412 147.462 229.244C147.011 229.244 146.579 229.422 146.259 229.74C145.939 230.058 145.758 230.489 145.756 230.94C145.753 231.391 145.929 231.824 146.245 232.146C146.561 232.467 146.991 232.651 147.442 232.656L146.748 235.218C141.363 242.705 143.998 255.14 146.748 267.648H171.497C174.608 254.015 176.964 241.068 171.497 235.218Z" fill="#E6E6E6"/>
<path d="M159.196 255.273C162.967 255.273 166.024 252.217 166.024 248.446C166.024 244.675 162.967 241.619 159.196 241.619C155.426 241.619 152.369 244.675 152.369 248.446C152.369 252.217 155.426 255.273 159.196 255.273Z" fill="white"/>
<path d="M207.497 235.218L206.767 232.658H206.931C207.384 232.658 207.818 232.478 208.138 232.158C208.458 231.838 208.638 231.404 208.638 230.951C208.638 230.498 208.458 230.064 208.138 229.744C207.818 229.424 207.384 229.244 206.931 229.244C199.216 227.412 191.178 227.412 183.462 229.244C183.011 229.244 182.579 229.422 182.259 229.74C181.939 230.058 181.758 230.489 181.756 230.94C181.753 231.391 181.929 231.824 182.245 232.146C182.561 232.467 182.991 232.651 183.442 232.656L182.748 235.218C177.363 242.705 179.998 255.14 182.748 267.648H207.497C210.608 254.015 212.964 241.068 207.497 235.218Z" fill="#E6E6E6"/>
<path d="M195.196 255.273C198.967 255.273 202.024 252.217 202.024 248.446C202.024 244.675 198.967 241.619 195.196 241.619C191.426 241.619 188.369 244.675 188.369 248.446C188.369 252.217 191.426 255.273 195.196 255.273Z" fill="white"/>
<path d="M150.497 270.218L149.767 267.658H149.931C150.384 267.658 150.818 267.478 151.138 267.158C151.458 266.838 151.638 266.404 151.638 265.951C151.638 265.498 151.458 265.064 151.138 264.744C150.818 264.424 150.384 264.244 149.931 264.244C142.216 262.412 134.178 262.412 126.462 264.244C126.011 264.244 125.579 264.422 125.259 264.74C124.939 265.058 124.758 265.489 124.756 265.94C124.753 266.391 124.929 266.824 125.245 267.146C125.561 267.467 125.991 267.651 126.442 267.656L125.748 270.218C120.363 277.705 122.998 290.14 125.748 302.648H150.497C153.608 289.015 155.964 276.068 150.497 270.218Z" fill="#E6E6E6"/>
<path d="M138.196 290.273C141.967 290.273 145.024 287.217 145.024 283.446C145.024 279.675 141.967 276.619 138.196 276.619C134.426 276.619 131.369 279.675 131.369 283.446C131.369 287.217 134.426 290.273 138.196 290.273Z" fill="white"/>
<path d="M479.497 171.218L478.767 168.658H478.931C479.384 168.658 479.818 168.478 480.138 168.158C480.458 167.838 480.638 167.404 480.638 166.951C480.638 166.498 480.458 166.064 480.138 165.744C479.818 165.424 479.384 165.244 478.931 165.244C471.216 163.412 463.178 163.412 455.462 165.244C455.012 165.244 454.579 165.422 454.259 165.74C453.939 166.058 453.758 166.489 453.756 166.94C453.753 167.391 453.929 167.824 454.245 168.146C454.561 168.467 454.991 168.651 455.442 168.656L454.748 171.218C449.363 178.705 451.998 191.14 454.748 203.648H479.497C482.608 190.015 484.964 177.068 479.497 171.218Z" fill="#CCCCCC"/>
<path d="M467.196 191.273C470.967 191.273 474.024 188.217 474.024 184.446C474.024 180.675 470.967 177.619 467.196 177.619C463.426 177.619 460.369 180.675 460.369 184.446C460.369 188.217 463.426 191.273 467.196 191.273Z" fill="white"/>
<path d="M130.952 306.749L130.222 304.189H130.386C130.838 304.188 131.271 304.008 131.59 303.688C131.91 303.368 132.089 302.934 132.089 302.482C132.089 302.03 131.91 301.597 131.59 301.277C131.271 300.957 130.838 300.776 130.386 300.775C122.671 298.943 114.633 298.943 106.917 300.775C106.467 300.775 106.034 300.953 105.714 301.271C105.394 301.589 105.213 302.02 105.211 302.471C105.208 302.922 105.384 303.355 105.7 303.677C106.016 303.998 106.446 304.182 106.897 304.187L106.203 306.749C100.818 314.236 103.453 326.671 106.203 339.179H130.952C134.063 325.546 136.419 312.599 130.952 306.749Z" fill="#E6E6E6"/>
<path d="M118.652 326.804C122.422 326.804 125.479 323.748 125.479 319.977C125.479 316.207 122.422 313.15 118.652 313.15C114.881 313.15 111.824 316.207 111.824 319.977C111.824 323.748 114.881 326.804 118.652 326.804Z" fill="white"/>
<path d="M167.952 306.749L167.222 304.189H167.386C167.838 304.188 168.271 304.008 168.59 303.688C168.91 303.368 169.089 302.934 169.089 302.482C169.089 302.03 168.91 301.597 168.59 301.277C168.271 300.957 167.838 300.776 167.386 300.775C159.671 298.943 151.633 298.943 143.917 300.775C143.467 300.775 143.034 300.953 142.714 301.271C142.394 301.589 142.213 302.02 142.211 302.471C142.208 302.922 142.384 303.355 142.7 303.677C143.016 303.998 143.446 304.182 143.897 304.187L143.203 306.749C137.818 314.236 140.453 326.671 143.203 339.179H167.952C171.063 325.546 173.419 312.599 167.952 306.749Z" fill="#E6E6E6"/>
<path d="M155.652 326.804C159.422 326.804 162.479 323.748 162.479 319.977C162.479 316.207 159.422 313.15 155.652 313.15C151.881 313.15 148.824 316.207 148.824 319.977C148.824 323.748 151.881 326.804 155.652 326.804Z" fill="white"/>
<path d="M243.792 306.749L243.062 304.189H243.226C243.678 304.188 244.111 304.008 244.43 303.688C244.75 303.368 244.929 302.934 244.929 302.482C244.929 302.03 244.75 301.597 244.43 301.277C244.111 300.957 243.678 300.776 243.226 300.775C235.51 298.943 227.473 298.943 219.757 300.775C219.306 300.775 218.874 300.953 218.554 301.271C218.234 301.589 218.053 302.02 218.051 302.471C218.048 302.922 218.224 303.355 218.54 303.677C218.856 303.998 219.286 304.182 219.737 304.187L219.043 306.749C213.658 314.236 216.292 326.671 219.043 339.179H243.792C246.903 325.546 249.259 312.599 243.792 306.749Z" fill="#E6E6E6"/>
<path d="M231.491 326.804C235.262 326.804 238.319 323.748 238.319 319.977C238.319 316.207 235.262 313.15 231.491 313.15C227.721 313.15 224.664 316.207 224.664 319.977C224.664 323.748 227.721 326.804 231.491 326.804Z" fill="white"/>
<path d="M586.085 210.79L518.206 206.216C518.206 206.216 502.478 242.548 502.73 247.35C502.982 252.152 509.472 250.706 502.727 257.929C495.982 265.152 495.982 255.152 495.982 265.152C495.982 275.152 468.711 497.152 480.711 499.152C501.711 502.152 500.711 498.152 500.711 498.152L533.664 394.909C533.664 394.909 593.161 481.89 611.711 477.152C630.261 472.414 626.711 466.152 626.711 466.152L586.966 385.477C586.966 385.477 581.041 385.466 581.876 378.809C582.711 372.152 577.654 373.278 577.654 373.278C577.654 373.278 570.06 370.911 572.886 367.031C575.711 363.152 568.211 360.908 568.211 360.908L590.1 277.121C590.1 277.121 605.689 240.928 586.085 210.79Z" fill="#2F2E41"/>
<path d="M580.096 72.1987L556.733 73.3822L548.934 86.5221C548.934 86.5221 526.71 88.152 526.71 106.152C526.71 124.152 511.54 116.319 518.625 139.235C525.71 162.152 527.324 166.569 521.017 169.861C514.71 173.152 505.809 172.443 513.759 177.798C521.71 183.152 524.71 185.152 522.71 187.152C520.71 189.152 559.78 173.417 582.245 183.284C582.245 183.284 588.53 178.527 587.12 174.34C585.71 170.152 584.942 171.771 587.326 167.962C589.71 164.152 615.012 97.892 615.012 97.892C615.012 97.892 609.875 88.3423 598.792 88.7471C587.71 89.1519 580.096 72.1987 580.096 72.1987Z" fill="#FF4000"/>
<path d="M662.069 294.733L620.759 317.151L589.041 258.703C586.068 253.225 585.393 246.791 587.165 240.815C588.936 234.84 593.009 229.812 598.487 226.84C603.964 223.867 610.399 223.192 616.375 224.963C622.35 226.735 627.377 230.807 630.35 236.285L662.069 294.733ZM621.563 314.439L659.357 293.929L628.592 237.239C627.246 234.757 625.424 232.564 623.23 230.786C621.036 229.009 618.513 227.68 615.806 226.877C613.099 226.074 610.26 225.813 607.451 226.107C604.643 226.402 601.92 227.246 599.438 228.593C596.956 229.94 594.764 231.763 592.987 233.957C591.209 236.151 589.881 238.674 589.079 241.382C588.277 244.089 588.016 246.928 588.311 249.736C588.606 252.545 589.451 255.267 590.799 257.749L621.563 314.439Z" fill="#3F3D56"/>
<path d="M697.359 336.453L636.509 369.476C635.043 370.276 633.36 370.587 631.706 370.364C630.051 370.141 628.511 369.396 627.309 368.237L586.218 328.794C585.325 327.937 584.647 326.881 584.239 325.712C583.831 324.544 583.704 323.295 583.869 322.069C584.034 320.842 584.487 319.671 585.189 318.652C585.892 317.633 586.825 316.795 587.913 316.204L679.178 266.676C680.266 266.086 681.478 265.761 682.715 265.727C683.953 265.693 685.181 265.952 686.299 266.482C687.418 267.012 688.395 267.798 689.153 268.777C689.91 269.756 690.426 270.9 690.658 272.116L701.334 328.065C701.651 329.704 701.436 331.402 700.721 332.91C700.006 334.419 698.828 335.66 697.359 336.453Z" fill="#FF4000"/>
<path d="M633.783 291.879L627.631 295.218L633.355 305.765L639.507 302.426L633.783 291.879Z" fill="#3F3D56"/>
<path d="M617.868 177.441L616.081 114.727C615.998 112.07 614.873 109.553 612.95 107.718C611.027 105.883 608.459 104.878 605.801 104.92V104.92C604.426 104.941 603.07 105.243 601.816 105.805C600.561 106.368 599.434 107.18 598.503 108.193C597.573 109.205 596.858 110.397 596.403 111.694C595.948 112.992 595.762 114.369 595.857 115.74L599.709 180.828L600.383 220.477C598.724 221.211 597.331 222.439 596.394 223.993C595.456 225.546 595.02 227.351 595.144 229.161C595.268 230.972 595.946 232.7 597.086 234.112C598.227 235.523 599.774 236.549 601.518 237.051C603.262 237.552 605.118 237.505 606.834 236.914C608.55 236.324 610.043 235.22 611.109 233.752C612.176 232.284 612.765 230.524 612.796 228.709C612.827 226.895 612.299 225.115 611.283 223.611L617.868 177.441Z" fill="#A0616A"/>
<path d="M622.209 127.342C622.668 126.876 622.961 126.273 623.043 125.624C623.126 124.975 622.993 124.317 622.666 123.751C622.275 123.046 622.114 122.235 622.206 121.433C622.225 121.279 622.255 121.125 622.295 120.974C622.556 120.071 622.595 119.118 622.408 118.196C622.222 117.274 621.816 116.411 621.225 115.679C619.244 113.3 618.288 109.699 617.874 106.488C617.421 102.975 617.152 99.385 615.871 96.0825C614.024 91.3185 609.609 87.0729 603.583 89.1049C601.034 90.0089 598.874 91.764 597.468 94.0745C594.463 98.8662 594.43 104.66 594.452 110.203L593.372 108.013C593.501 114.066 592.407 120.084 590.154 125.704C591.497 125.443 592.447 127.248 592.013 128.545C591.579 129.843 590.379 130.695 589.351 131.598C588.054 132.736 586.831 134.425 588.047 136.164C588.35 136.571 588.733 136.912 589.174 137.164C589.614 137.417 590.102 137.575 590.607 137.63C600.121 138.867 609.789 138.123 619.002 135.444C621.048 134.848 623.241 134.02 624.306 132.175C625.371 130.329 624.34 127.313 622.209 127.342Z" fill="#FF4000"/>
<path d="M602.516 40.5941C601.176 45.5541 602.716 53.364 603.296 57.994C603.916 62.944 595.336 67.3741 590.426 67.6541C590.547 66.0156 590.087 64.3869 589.126 63.0541C589.114 64.6391 588.788 66.2061 588.166 67.6641H547.196C542.036 57.9541 537.646 44.6841 542.386 30.9641C542.626 28.2086 543.675 25.5854 545.401 23.4238C547.126 21.2623 549.452 19.6586 552.086 18.8141L574.426 11.6641C583.236 11.6641 594.046 12.9141 598.916 19.4741C601.072 22.4943 602.515 25.9634 603.139 29.6211C603.762 33.2789 603.549 37.0303 602.516 40.5941V40.5941Z" fill="#2F2E41"/>
<path d="M565.197 66.6641C577.9 66.6641 588.197 56.3666 588.197 43.6641C588.197 30.9615 577.9 20.6641 565.197 20.6641C552.495 20.6641 542.197 30.9615 542.197 43.6641C542.197 56.3666 552.495 66.6641 565.197 66.6641Z" fill="#A0616A"/>
<path d="M594.197 37.6641V42.6641H574.297C574.499 41.6989 574.5 40.7023 574.298 39.7369C574.097 38.7715 573.698 37.8581 573.127 37.0541C573.111 39.011 572.624 40.9352 571.707 42.6641C560.2 46.0668 550.542 46.0015 542.628 42.6641C542.046 42.6641 541.47 42.5495 540.932 42.3268C540.395 42.1042 539.906 41.7778 539.495 41.3664C539.084 40.9549 538.757 40.4665 538.535 39.9289C538.312 39.3913 538.197 38.8151 538.197 38.2333C538.197 22.9034 550.281 9.98616 565.608 9.67022C569.334 9.59132 573.038 10.2571 576.503 11.6285C579.968 12.9999 583.125 15.0494 585.788 17.6567C588.45 20.2641 590.566 23.3768 592.01 26.8124C593.454 30.248 594.198 33.9374 594.197 37.6641V37.6641Z" fill="#2F2E41"/>
<path d="M590.274 3.78284C587.903 2.67341 585.233 2.20324 583.362 0L584.068 3.73236C580.223 1.67504 575.751 1.11638 571.518 2.16437C570.273 2.41359 569.125 3.00965 568.204 3.88377C567.694 4.42218 567.311 5.06824 567.084 5.77429C566.857 6.48034 566.791 7.22841 566.891 7.96332C567.001 8.59927 567.243 9.20522 567.601 9.74249C567.959 10.2798 568.424 10.7365 568.969 11.0836C569.947 11.6383 571.021 12.0039 572.134 12.1614C576.763 13.1023 581.392 14.0432 586.02 14.9841C587.75 15.4925 589.581 15.551 591.34 15.1539C592.302 14.825 593.147 14.2226 593.771 13.4203C594.395 12.6181 594.771 11.6511 594.854 10.638C595.117 7.45123 592.646 4.89222 590.274 3.78284Z" fill="#2F2E41"/>
<path d="M215.14 178.665L105.512 214.042C104.534 214.356 103.473 214.269 102.559 213.801C101.645 213.334 100.955 212.523 100.638 211.546L86.7719 168.575C86.4578 167.598 86.5441 166.536 87.0119 165.622C87.4798 164.709 88.2909 164.018 89.2673 163.702L198.895 128.326C199.873 128.011 200.934 128.098 201.848 128.566C202.762 129.033 203.452 129.845 203.769 130.821L217.635 173.792C217.949 174.769 217.863 175.831 217.395 176.745C216.927 177.658 216.116 178.349 215.14 178.665V178.665Z" fill="#F2F2F2"/>
<path d="M188.814 184.566L122.156 206.076C117.186 207.674 111.787 207.235 107.141 204.856C102.495 202.477 98.9824 198.352 97.3739 193.386L94.7386 185.22C93.1413 180.251 93.5803 174.851 95.9592 170.205C98.3382 165.559 102.463 162.047 107.428 160.438L182.254 136.292C187.223 134.695 192.623 135.134 197.268 137.513C201.914 139.892 205.427 144.017 207.035 148.982C209.329 156.118 208.698 163.871 205.283 170.542C201.867 177.213 195.944 182.256 188.814 184.566V184.566Z" fill="white"/>
<path d="M160.861 156.778L116.799 170.996C116.674 171.037 116.543 171.052 116.412 171.041C116.282 171.031 116.154 170.995 116.038 170.935C115.921 170.875 115.817 170.793 115.732 170.693C115.647 170.593 115.583 170.478 115.542 170.353C115.502 170.228 115.487 170.097 115.497 169.966C115.508 169.835 115.544 169.708 115.604 169.591C115.664 169.474 115.746 169.371 115.846 169.286C115.946 169.201 116.061 169.136 116.186 169.096L160.248 154.877C160.5 154.797 160.773 154.819 161.009 154.94C161.244 155.061 161.421 155.27 161.503 155.522C161.584 155.773 161.562 156.047 161.442 156.282C161.321 156.518 161.113 156.696 160.861 156.778V156.778Z" fill="#E6E6E6"/>
<path d="M186.438 159.718L120.071 181.134C119.946 181.175 119.814 181.19 119.683 181.18C119.552 181.17 119.425 181.134 119.308 181.074C119.191 181.014 119.087 180.932 119.002 180.832C118.917 180.732 118.852 180.616 118.812 180.491C118.772 180.366 118.756 180.235 118.767 180.104C118.778 179.973 118.814 179.846 118.874 179.729C118.934 179.612 119.016 179.508 119.116 179.423C119.216 179.338 119.332 179.274 119.457 179.234L185.824 157.818C186.076 157.736 186.35 157.759 186.586 157.879C186.822 158 187 158.209 187.081 158.461C187.163 158.713 187.14 158.987 187.02 159.223C186.899 159.459 186.69 159.637 186.438 159.718V159.718Z" fill="#E6E6E6"/>
<path d="M189.709 169.856L123.342 191.272C123.217 191.313 123.086 191.328 122.955 191.317C122.825 191.307 122.697 191.271 122.58 191.211C122.464 191.151 122.36 191.069 122.275 190.969C122.19 190.869 122.126 190.754 122.085 190.629C122.045 190.504 122.03 190.373 122.04 190.242C122.051 190.111 122.087 189.984 122.147 189.867C122.207 189.75 122.289 189.647 122.389 189.562C122.489 189.477 122.604 189.412 122.729 189.372L189.096 167.956C189.348 167.875 189.622 167.897 189.857 168.018C190.092 168.139 190.27 168.348 190.351 168.6C190.432 168.852 190.41 169.125 190.29 169.361C190.17 169.596 189.961 169.774 189.709 169.856V169.856Z" fill="#E6E6E6"/>
<path d="M189.709 169.856L123.342 191.272C123.217 191.313 123.086 191.328 122.955 191.317C122.825 191.307 122.697 191.271 122.58 191.211C122.464 191.151 122.36 191.069 122.275 190.969C122.19 190.869 122.126 190.754 122.085 190.629C122.045 190.504 122.03 190.373 122.04 190.242C122.051 190.111 122.087 189.984 122.147 189.867C122.207 189.75 122.289 189.647 122.389 189.562C122.489 189.477 122.604 189.412 122.729 189.372L189.096 167.956C189.348 167.875 189.622 167.897 189.857 168.018C190.092 168.139 190.27 168.348 190.351 168.6C190.432 168.852 190.41 169.125 190.29 169.361C190.17 169.596 189.961 169.774 189.709 169.856V169.856Z" fill="#E6E6E6"/>
<path d="M195.153 146.421C201.532 146.421 206.704 141.249 206.704 134.87C206.704 128.49 201.532 123.318 195.153 123.318C188.773 123.318 183.602 128.49 183.602 134.87C183.602 141.249 188.773 146.421 195.153 146.421Z" fill="#FF4000"/>
<path d="M194.746 139.503C194.591 139.503 194.438 139.467 194.299 139.398C194.161 139.328 194.04 139.228 193.947 139.104L191.498 135.838C191.419 135.733 191.361 135.614 191.329 135.486C191.296 135.359 191.288 135.227 191.307 135.097C191.325 134.967 191.369 134.842 191.436 134.729C191.503 134.616 191.591 134.517 191.696 134.438C191.801 134.359 191.921 134.302 192.048 134.269C192.176 134.237 192.308 134.23 192.438 134.249C192.568 134.267 192.693 134.311 192.806 134.379C192.919 134.446 193.017 134.534 193.096 134.64L194.698 136.776L198.814 130.603C198.961 130.383 199.189 130.23 199.449 130.178C199.708 130.126 199.978 130.179 200.198 130.326C200.419 130.473 200.572 130.701 200.624 130.961C200.676 131.221 200.622 131.491 200.475 131.711L195.577 139.058C195.488 139.191 195.369 139.301 195.23 139.378C195.09 139.456 194.934 139.498 194.774 139.503L194.746 139.503Z" fill="white"/>
</g>
<defs>
<clipPath id="clip0_5_87">
<rect width="704.726" height="560.956" fill="white"/>
</clipPath>
</defs>
</svg>
